<svg width="74" height="56" viewBox="0 0 74 56" fill="none" xmlns="http://www.w3.org/2000/svg">
<mask id="mask0_231_188" style="mask-type:luminance" maskUnits="userSpaceOnUse" x="0" y="0" width="74" height="56">
<path d="M0 0H73.4594V55.0945H0V0Z" fill="white"/>
</mask>
<g mask="url(#mask0_231_188)">
<path fill-rule="evenodd" clip-rule="evenodd" d="M0 0V55.0945H73.4594V0H0Z" fill="#3774B0"/>
<mask id="mask1_231_188" style="mask-type:luminance" maskUnits="userSpaceOnUse" x="0" y="0" width="74" height="56">
<path fill-rule="evenodd" clip-rule="evenodd" d="M0 0V55.0945H73.4594V0H0Z" fill="white"/>
</mask>
<g mask="url(#mask1_231_188)">
<path d="M0 0H41.3209V32.1385H0V0Z" fill="#3774B0"/>
<mask id="mask2_231_188" style="mask-type:luminance" maskUnits="userSpaceOnUse" x="0" y="0" width="42" height="33">
<path d="M0 0H41.3209V32.1385H0V0Z" fill="white"/>
</mask>
<g mask="url(#mask2_231_188)">
<path d="M-4.60101 29.8424L4.49176 33.8303L41.5273 4.33577L46.3235 -1.5904L36.6 -2.92328L21.4941 9.78677L9.33547 18.3504L-4.60101 29.8424Z" fill="#F7FCFF"/>
<path d="M-3.35626 32.6364L1.2761 34.9506L44.6011 -2.14105H38.0967L-3.35626 32.6364Z" fill="#F50100"/>
<path d="M45.9219 29.8424L36.8291 33.8303L-0.206335 4.33577L-5.00258 -1.5904L4.72085 -2.92328L19.8267 9.78677L31.9853 18.3504L45.9219 29.8424Z" fill="#F7FCFF"/>
<path d="M45.6116 31.8476L40.9793 34.162L22.5311 18.2811L17.0616 16.5068L-5.464 -1.57007H1.04035L23.5534 16.0777L29.5332 18.2053L45.6116 31.8476Z" fill="#F50100"/>
<path fill-rule="evenodd" clip-rule="evenodd" d="M22.9205 0H18.3293V13.7736H0V18.3648H18.3293V32.1385H22.9205V18.3648H41.3209V13.7736H22.9205V0Z" fill="#F50100"/>
<mask id="mask3_231_188" style="mask-type:luminance" maskUnits="userSpaceOnUse" x="-5" y="-5" width="51" height="42">
<path d="M-4.59122 -4.59119H45.9121V36.7297H-4.59122V-4.59119Z" fill="white"/>
<path fill-rule="evenodd" clip-rule="evenodd" d="M22.9205 0H18.3293V13.7736H0V18.3648H18.3293V32.1385H22.9205V18.3648H41.3209V13.7736H22.9205V0Z" fill="black"/>
</mask>
<g mask="url(#mask3_231_188)">
<path d="M18.3293 4.80413e-05V-3.44336H14.8859V4.80413e-05H18.3293ZM22.9205 4.80413e-05H26.3639V-3.44336H22.9205V4.80413e-05ZM18.3293 13.7737V17.2171H21.7727V13.7737H18.3293ZM2.6226e-06 13.7737V10.3303H-3.44341V13.7737H2.6226e-06ZM2.6226e-06 18.3649H-3.44341V21.8083H2.6226e-06V18.3649ZM18.3293 18.3649H21.7727V14.9215H18.3293V18.3649ZM18.3293 32.1385H14.8859V35.5819H18.3293V32.1385ZM22.9205 32.1385V35.5819H26.3639V32.1385H22.9205ZM22.9205 18.3649V14.9215H19.4771V18.3649H22.9205ZM41.3209 18.3649V21.8083H44.7643V18.3649H41.3209ZM41.3209 13.7737H44.7643V10.3303H41.3209V13.7737ZM22.9205 13.7737H19.4771V17.2171H22.9205V13.7737ZM18.3293 3.44346H22.9205V-3.44336H18.3293V3.44346ZM21.7727 13.7737V4.80413e-05H14.8859V13.7737H21.7727ZM2.6226e-06 17.2171H18.3293V10.3303H2.6226e-06V17.2171ZM3.44341 18.3649V13.7737H-3.44341V18.3649H3.44341ZM18.3293 14.9215H2.6226e-06V21.8083H18.3293V14.9215ZM21.7727 32.1385V18.3649H14.8859V32.1385H21.7727ZM22.9205 28.6951H18.3293V35.5819H22.9205V28.6951ZM19.4771 18.3649V32.1385H26.3639V18.3649H19.4771ZM41.3209 14.9215H22.9205V21.8083H41.3209V14.9215ZM37.8775 13.7737V18.3649H44.7643V13.7737H37.8775ZM22.9205 17.2171H41.3209V10.3303H22.9205V17.2171ZM19.4771 4.80413e-05V13.7737H26.3639V4.80413e-05H19.4771Z" fill="#F7FCFF"/>
</g>
</g>
</g>
<path d="M20.6605 47.0599L17.6724 49.8213L17.9683 45.7633L13.9463 45.149L17.3034 42.8502L15.2761 39.3226L19.1664 40.514L20.6605 36.7297L22.1545 40.514L26.0448 39.3226L24.0176 42.8502L27.3746 45.149L23.3525 45.7633L23.6486 49.8213L20.6605 47.0599Z" fill="#F7FCFF"/>
<path d="M50.5033 29.8428L48.5112 31.6837L48.7086 28.9785L46.0271 28.5687L48.2653 27.0364L46.9137 24.6846L49.5073 25.4789L50.5033 22.956L51.4994 25.4789L54.093 24.6846L52.7413 27.0364L54.9795 28.5687L52.298 28.9785L52.4955 31.6837L50.5033 29.8428Z" fill="#F7FCFF"/>
<path d="M55.0945 11.478L53.1024 13.3189L53.2998 10.6137L50.6183 10.204L52.8566 8.67158L51.5049 6.31982L54.0985 7.11413L55.0945 4.59119L56.0906 7.11413L58.6842 6.31982L57.3325 8.67158L59.5707 10.204L56.8892 10.6137L57.0867 13.3189L55.0945 11.478Z" fill="#F7FCFF"/>
<path d="M66.5726 20.6604L64.5804 22.5014L64.7779 19.7961L62.0964 19.3865L64.3346 17.854L62.9829 15.5023L65.5765 16.2966L66.5726 13.7736L67.5686 16.2966L70.1622 15.5023L68.8106 17.854L71.0488 19.3865L68.3673 19.7961L68.5647 22.5014L66.5726 20.6604Z" fill="#F7FCFF"/>
<path d="M57.3901 50.5033L55.398 52.3441L55.5954 49.639L52.9139 49.2292L55.1522 47.6969L53.8005 45.345L56.3941 46.1393L57.3901 43.6165L58.3862 46.1393L60.9798 45.345L59.6281 47.6969L61.8663 49.2292L59.1848 49.639L59.3823 52.3441L57.3901 50.5033Z" fill="#F7FCFF"/>
<path d="M65.4248 32.7124L63.4007 33.7764L63.7873 31.5228L62.1498 29.9266L64.4128 29.5977L65.4248 27.5472L66.4367 29.5977L68.6997 29.9266L67.0622 31.5228L67.4488 33.7764L65.4248 32.7124Z" fill="#F7FCFF"/>
</g>
</svg>
