<svg width="74" height="56" viewBox="0 0 74 56" fill="none" xmlns="http://www.w3.org/2000/svg">
<mask id="mask0_231_68" style="mask-type:luminance" maskUnits="userSpaceOnUse" x="0" y="0" width="74" height="56">
<path fill-rule="evenodd" clip-rule="evenodd" d="M0 0H73.4594V55.0945H0V0Z" fill="white"/>
</mask>
<g mask="url(#mask0_231_68)">
<path fill-rule="evenodd" clip-rule="evenodd" d="M18.3648 0H55.0945V55.0945H18.3648V0Z" fill="#F7FCFF"/>
<path fill-rule="evenodd" clip-rule="evenodd" d="M36.6755 16.0692L36.7297 43.6165H35.3535L36.1978 36.7992C30.0224 37.9105 27.1898 38.1858 27.7004 37.6254C28.2109 37.0648 28.6133 36.2706 28.9074 35.2424L20.6604 29.7402C21.5277 29.7295 22.3141 29.5141 23.0196 29.0945C23.7251 28.6749 23.3725 27.2208 21.9613 24.7322L26.1251 25.338L27.7004 23.6259L30.8419 26.9139H32.2539L30.8419 19.3828L33.373 20.7966L36.6755 16.0692ZM36.6755 16.0692L40.0863 20.7966L42.6174 19.3828L41.2054 26.9139H42.6174L45.759 23.6259L47.3342 25.338L51.498 24.7322C50.0869 27.2208 49.7343 28.6749 50.4397 29.0945C51.1452 29.5141 51.9316 29.7295 52.7989 29.7402L44.552 35.2424C44.846 36.2706 45.2484 37.0648 45.759 37.6254C46.2695 38.1858 43.437 37.9105 37.2616 36.7992L38.1059 43.6165H36.7297L36.6755 16.0692Z" fill="#B03737"/>
<path fill-rule="evenodd" clip-rule="evenodd" d="M55.0945 0H73.4594V55.0945H55.0945V0Z" fill="#B03737"/>
<path fill-rule="evenodd" clip-rule="evenodd" d="M0 0H18.3648V55.0945H0V0Z" fill="#B03737"/>
</g>
</svg>
