<svg width="174" height="49" viewBox="0 0 174 49" fill="none" xmlns="http://www.w3.org/2000/svg">
<g clip-path="url(#clip0_202_19)">
<mask id="mask0_202_19" style="mask-type:luminance" maskUnits="userSpaceOnUse" x="3" y="8" width="33" height="33">
<path d="M3.92717 8.72925H35.6521V40.9172H3.92717V8.72925Z" fill="white"/>
</mask>
<g mask="url(#mask0_202_19)">
<path d="M35.6521 24.7801C35.6521 25.0447 35.6458 25.3091 35.6329 25.5732C35.6203 25.8375 35.6011 26.1012 35.5758 26.3645C35.5503 26.6277 35.5185 26.8903 35.4805 27.1518C35.4424 27.4134 35.3979 27.674 35.3473 27.9335C35.2967 28.1929 35.2398 28.4511 35.1766 28.7077C35.1136 28.9642 35.0445 29.219 34.9691 29.4723C34.8936 29.7253 34.8123 29.9763 34.7249 30.2256C34.6375 30.4746 34.544 30.7214 34.4446 30.9658C34.3454 31.2101 34.2401 31.4518 34.1291 31.6911C34.0181 31.9301 33.9015 32.1662 33.779 32.3997C33.6567 32.633 33.5287 32.8631 33.3953 33.0899C33.2619 33.3167 33.123 33.5402 32.9789 33.7601C32.8346 33.98 32.6852 34.1964 32.5305 34.4088C32.3759 34.6212 32.2161 34.8298 32.0515 35.0341C31.8869 35.2387 31.7173 35.4389 31.5429 35.635C31.3687 35.831 31.1897 36.0225 31.0062 36.2095C30.8226 36.3965 30.6347 36.5789 30.4422 36.7566C30.2499 36.9341 30.0533 37.107 29.8527 37.2747C29.6521 37.4426 29.4474 37.6052 29.239 37.763C29.0304 37.9205 28.8182 38.0726 28.6024 38.2197C28.3866 38.3667 28.1673 38.508 27.9445 38.6442C27.7219 38.7802 27.496 38.9106 27.2671 39.0352C27.0382 39.1598 26.8065 39.2787 26.5717 39.3919C26.3371 39.505 26.0997 39.6121 25.8599 39.7134C25.6201 39.8147 25.3779 39.9098 25.1335 39.9988C24.8891 40.0879 24.6428 40.171 24.3942 40.2477C24.1459 40.3245 23.8957 40.3952 23.6439 40.4594C23.3921 40.5236 23.139 40.5815 22.8843 40.6331C22.6297 40.6848 22.374 40.7299 22.1172 40.7688C21.8604 40.8077 21.6029 40.8399 21.3446 40.8659C21.086 40.8919 20.8272 40.9112 20.568 40.9243C20.3088 40.9372 20.0492 40.9436 19.7897 40.9436C19.5301 40.9436 19.2707 40.9372 19.0112 40.9243C18.752 40.9112 18.4933 40.8919 18.2349 40.8659C17.9766 40.8399 17.7189 40.8077 17.4621 40.7688C17.2053 40.7299 16.9498 40.6848 16.6951 40.6331C16.4405 40.5815 16.1872 40.5236 15.9354 40.4594C15.6836 40.3952 15.4335 40.3245 15.185 40.2477C14.9367 40.171 14.6901 40.0879 14.4458 39.9988C14.2014 39.9098 13.9592 39.8147 13.7194 39.7134C13.4795 39.6121 13.2424 39.505 13.0076 39.3919C12.773 39.2787 12.541 39.1598 12.3121 39.0352C12.0832 38.9106 11.8574 38.7802 11.6348 38.6442C11.412 38.508 11.1929 38.3667 10.9771 38.2197C10.7612 38.0726 10.5489 37.9205 10.3405 37.763C10.1318 37.6052 9.92735 37.4426 9.72657 37.2747C9.52601 37.107 9.32936 36.9341 9.13708 36.7566C8.9448 36.5789 8.75688 36.3965 8.57332 36.2095C8.38976 36.0225 8.21077 35.831 8.03637 35.635C7.86196 35.4389 7.69257 35.2387 7.52776 35.0341C7.36317 34.8298 7.20359 34.6212 7.0488 34.4088C6.89423 34.1964 6.74468 33.98 6.60058 33.7601C6.45626 33.5402 6.31739 33.3167 6.18397 33.0899C6.05055 32.8631 5.92258 32.633 5.80028 32.3997C5.67798 32.1662 5.56113 31.9301 5.45016 31.6911C5.3392 31.4518 5.23412 31.2101 5.13471 30.9658C5.0353 30.7214 4.94199 30.4746 4.85457 30.2256C4.76693 29.9763 4.68561 29.7253 4.61018 29.4723C4.53497 29.219 4.46565 28.9642 4.40264 28.7077C4.33964 28.4511 4.28274 28.1929 4.23194 27.9335C4.18137 27.674 4.13711 27.4134 4.09896 27.1518C4.06081 26.8903 4.02898 26.6277 4.00369 26.3645C3.97818 26.1012 3.959 25.8375 3.94635 25.5732C3.93371 25.3091 3.92717 25.0447 3.92717 24.7801C3.92717 24.5156 3.93371 24.2512 3.94635 23.9871C3.959 23.7229 3.97818 23.459 4.00369 23.1958C4.02898 22.9326 4.06081 22.6702 4.09896 22.4085C4.13711 22.1468 4.18137 21.8863 4.23194 21.6268C4.28274 21.3673 4.33964 21.1094 4.40264 20.8528C4.46565 20.596 4.53497 20.3412 4.61018 20.0882C4.68561 19.835 4.76693 19.5839 4.85457 19.3349C4.94199 19.0857 5.0353 18.8391 5.13471 18.5947C5.23412 18.3501 5.3392 18.1085 5.45016 17.8694C5.56113 17.6302 5.67798 17.394 5.80028 17.1608C5.92258 16.9273 6.05055 16.6974 6.18397 16.4704C6.31739 16.2435 6.45626 16.0201 6.60058 15.8001C6.74468 15.5802 6.89423 15.3641 7.0488 15.1515C7.20359 14.9391 7.36317 14.7305 7.52776 14.5261C7.69257 14.3215 7.86196 14.1214 8.03637 13.9255C8.21077 13.7293 8.38976 13.5378 8.57332 13.3508C8.75688 13.1637 8.9448 12.9813 9.13708 12.8039C9.32936 12.6261 9.52601 12.4533 9.72657 12.2856C9.92735 12.1176 10.1318 11.955 10.3405 11.7975C10.5489 11.6398 10.7612 11.4876 10.9771 11.3406C11.1929 11.1937 11.412 11.0522 11.6348 10.9163C11.8574 10.7801 12.0832 10.6499 12.3121 10.5251C12.541 10.4005 12.773 10.2816 13.0076 10.1685C13.2424 10.0552 13.4795 9.94818 13.7194 9.84688C13.9592 9.7458 14.2014 9.6505 14.4458 9.56142C14.6901 9.47234 14.9367 9.38948 15.185 9.31262C15.4335 9.23576 15.6836 9.16534 15.9354 9.10091C16.1872 9.03671 16.4405 8.97873 16.6951 8.9272C16.9498 8.87566 17.2053 8.83034 17.4621 8.79147C17.7189 8.75281 17.9766 8.72038 18.2349 8.69439C18.4933 8.6684 18.752 8.64907 19.0112 8.63596C19.2707 8.62308 19.5301 8.61664 19.7897 8.61664C20.0492 8.61664 20.3088 8.62308 20.568 8.63596C20.8272 8.64907 21.086 8.6684 21.3446 8.69439C21.6029 8.72038 21.8604 8.75281 22.1172 8.79147C22.374 8.83034 22.6297 8.87566 22.8843 8.9272C23.139 8.97873 23.3921 9.03671 23.6439 9.10091C23.8957 9.16534 24.1459 9.23576 24.3942 9.31262C24.6428 9.38948 24.8891 9.47234 25.1335 9.56142C25.3779 9.6505 25.6201 9.7458 25.8599 9.84688C26.0997 9.94818 26.3371 10.0552 26.5717 10.1685C26.8065 10.2816 27.0382 10.4005 27.2671 10.5251C27.496 10.6499 27.7219 10.7801 27.9445 10.9163C28.1673 11.0522 28.3866 11.1937 28.6024 11.3406C28.8182 11.4876 29.0304 11.6398 29.239 11.7975C29.4474 11.955 29.6521 12.1176 29.8527 12.2856C30.0533 12.4533 30.2499 12.6261 30.4422 12.8039C30.6347 12.9813 30.8226 13.1637 31.0062 13.3508C31.1897 13.5378 31.3687 13.7293 31.5429 13.9255C31.7173 14.1214 31.8869 14.3215 32.0515 14.5261C32.2161 14.7305 32.3759 14.9391 32.5305 15.1515C32.6852 15.3641 32.8346 15.5802 32.9789 15.8001C33.123 16.0201 33.2619 16.2435 33.3953 16.4704C33.5287 16.6974 33.6567 16.9273 33.779 17.1608C33.9015 17.394 34.0181 17.6302 34.1291 17.8694C34.2401 18.1085 34.3454 18.3501 34.4446 18.5947C34.544 18.8391 34.6375 19.0857 34.7249 19.3349C34.8123 19.5839 34.8936 19.835 34.9691 20.0882C35.0445 20.3412 35.1136 20.596 35.1766 20.8528C35.2398 21.1094 35.2967 21.3673 35.3473 21.6268C35.3979 21.8863 35.4424 22.1468 35.4805 22.4085C35.5185 22.6702 35.5503 22.9326 35.5758 23.1958C35.6011 23.459 35.6203 23.7229 35.6329 23.9871C35.6458 24.2512 35.6521 24.5156 35.6521 24.7801Z" fill="#B03737"/>
</g>
<mask id="mask1_202_19" style="mask-type:luminance" maskUnits="userSpaceOnUse" x="7" y="15" width="25" height="20">
<path d="M7.78522 15.0793H31.7775V34.5863H7.78522V15.0793Z" fill="white"/>
</mask>
<g mask="url(#mask1_202_19)">
<path d="M13.6115 15.9432L15.1047 19.7959H8.61549C8.59086 19.7959 8.56753 19.8003 8.54507 19.8065L13.6268 15.7104C13.5897 15.7797 13.5808 15.8641 13.6115 15.9432ZM30.9648 19.7959H24.596L25.9716 15.9361C25.9993 15.8588 25.9899 15.7777 25.9542 15.7106L31.0352 19.8063C31.0128 19.8003 30.9895 19.7959 30.9648 19.7959ZM31.2016 19.9402L31.2264 19.9602L31.2262 19.9605H31.2269L31.2168 19.9725C31.2125 19.9613 31.2075 19.9507 31.2016 19.9402ZM24.4068 20.3477H30.914L20.2132 33.5944L24.4068 20.3477ZM15.3057 20.3477L19.4997 33.5962L8.67065 20.3477H15.3057ZM19.6021 15.6435L15.6056 19.5866L14.1149 15.7404C14.0979 15.6962 14.07 15.66 14.0364 15.6315H19.6172L19.6021 15.6435ZM24.0957 19.5841L19.9756 15.6406L19.9638 15.6315H25.5439C25.5088 15.6617 25.4798 15.7004 25.4628 15.7477L24.0957 19.5841ZM23.8382 20.3477L19.8561 32.9257L15.8744 20.3477H23.8382ZM19.7933 16.2231L23.526 19.7959H16.1718L19.7933 16.2231ZM8.3541 19.9605H8.35432L8.3541 19.9602L8.37895 19.9402C8.37329 19.9505 8.36805 19.9609 8.36369 19.972L8.3541 19.9605ZM31.5491 19.5168L26.1916 15.1986C26.0959 15.1215 25.9777 15.0797 25.8559 15.0797H13.7247C13.6028 15.0797 13.4844 15.1215 13.389 15.1986L8.01837 19.5275C7.87253 19.6448 7.79622 19.8303 7.81584 20.0187C7.82762 20.1328 7.87383 20.2384 7.94556 20.3226L19.4421 34.3877C19.5448 34.5136 19.6972 34.5863 19.8579 34.5863H19.8594C20.0207 34.5858 20.1733 34.5121 20.2756 34.3852L31.6385 20.3186C31.7191 20.2224 31.768 20.0971 31.768 19.9605C31.768 19.7787 31.6821 19.6175 31.5491 19.5168Z" fill="#F8F7F2"/>
</g>
</g>
<path d="M41.1753 33.12C39.6953 33.12 38.6953 31.92 38.9753 30.36C39.6953 26.48 46.6953 18.48 52.3753 18.48C53.9753 18.48 54.8953 19.28 54.6553 20.48C54.2953 22.68 51.6553 25 49.3353 26.32C49.2953 26.36 49.2553 26.36 49.2153 26.36C49.0953 26.36 49.0153 26.24 49.0153 26.12C49.0153 26.04 49.0553 25.96 49.1353 25.92C51.8553 24.36 53.8953 22.16 54.2153 20.4C54.3753 19.48 53.6953 18.96 52.3753 18.96C46.8953 18.96 40.0953 26.68 39.4553 30.44C39.2153 31.72 39.9753 32.68 41.1753 32.68C45.6953 32.68 51.3353 30.04 53.7353 28.52H53.8553C53.9753 28.52 54.0953 28.6 54.0953 28.72C54.0953 28.8 54.0553 28.88 53.9753 28.92C51.5753 30.44 45.8153 33.12 41.1753 33.12ZM52.6975 32.32C52.2175 32.32 51.9375 31.96 51.9375 31.4C51.9375 30.28 52.9775 28.96 54.3775 28.12C54.3775 28.08 54.4175 28.08 54.4175 28.04C54.4975 27.88 54.6575 27.76 54.8175 27.8C54.8975 27.84 54.8975 27.84 54.9775 27.8C55.1375 27.72 55.3375 27.64 55.5375 27.6C55.5375 27.56 55.5775 27.56 55.6175 27.56C55.7375 27.56 55.8175 27.68 55.8175 27.8C55.8175 27.92 55.7775 28 55.6575 28C55.6175 28.04 55.5375 28.04 55.4975 28.08C55.4175 28.12 55.4175 28.16 55.4975 28.2C57.6575 29.48 60.4575 29.64 62.3775 28.52H62.4975C62.6175 28.52 62.7375 28.6 62.7375 28.72C62.7375 28.8 62.6575 28.88 62.5775 28.92C60.4975 30.12 57.4175 29.96 55.0975 28.52C55.0175 28.44 54.9775 28.52 54.9775 28.6C55.2175 30.16 53.9775 32.32 52.6975 32.32ZM52.6975 31.88C53.6575 31.88 54.7375 29.84 54.5375 28.56C53.2975 29.32 52.3775 30.48 52.3775 31.4C52.3775 31.72 52.4975 31.88 52.6975 31.88ZM66.2903 32C65.3303 32 64.8503 31.6 64.8503 30.8C64.8503 30.32 65.0903 29.8 65.4103 29.28C65.6903 28.88 65.7303 28.8 65.2503 29.16C63.0903 30.92 61.9303 31.68 61.2903 31.68C60.9303 31.68 60.6903 31.44 60.6903 31.08C60.6903 30.36 61.5303 29.24 63.0103 27.92C63.0503 27.88 63.0903 27.84 63.1703 27.84C63.2903 27.84 63.4103 27.96 63.4103 28.08C63.4103 28.16 63.3703 28.2 63.3303 28.24C61.9703 29.44 61.1703 30.52 61.1703 31.04C61.1703 31.16 61.2103 31.24 61.2903 31.24C61.7703 31.24 62.9303 30.44 64.9703 28.8C66.2503 27.76 66.7703 27.32 67.0103 27.32C67.5703 27.32 67.2103 27.84 66.7703 28.36C66.1703 29.04 65.2903 30.04 65.2903 30.8C65.2903 31.32 65.5703 31.56 66.2903 31.56C67.5303 31.56 71.2503 29.96 73.3303 28.52C73.3703 28.48 73.4103 28.48 73.4903 28.48C73.6103 28.48 73.6903 28.6 73.6903 28.72C73.6903 28.8 73.6503 28.84 73.6103 28.88C71.5703 30.28 67.6903 32 66.2903 32ZM58.2259 48.36C57.4259 48.36 60.3459 44.68 64.2259 40.2C67.0259 36.6 70.8659 31.68 75.9459 25.36C75.9859 25.32 76.0659 25.28 76.1059 25.28C76.2259 25.28 76.3459 25.4 76.3459 25.52C76.3459 25.56 76.3459 25.64 76.3059 25.64C73.4259 29.2 70.9459 32.32 68.8659 35C69.5859 34.2 70.3459 33.36 71.0659 32.6C73.7059 29.68 76.4659 27.72 77.9459 27.72C78.3459 27.72 78.5859 27.92 78.5859 28.28C78.5859 28.88 77.7459 29.84 76.7459 30.6C79.0259 30.36 81.9059 29.92 83.9859 28.56C83.9859 28.52 84.0659 28.52 84.1059 28.52C84.2259 28.52 84.3459 28.6 84.3459 28.72C84.3459 28.8 84.2659 28.88 84.2259 28.92C81.8259 30.52 78.2659 30.92 75.9459 31.16H75.9059C75.1459 31.64 74.3059 31.96 73.7059 31.96C73.3859 31.96 73.1459 31.8 73.1459 31.56C73.1459 31.08 74.0259 30.88 75.7459 30.72C76.9859 29.96 78.1459 28.88 78.1459 28.28C78.1459 28.24 78.1059 28.16 77.9459 28.16C76.6259 28.16 73.9459 30.12 71.3859 32.92C68.6259 35.92 66.3459 38.48 64.5059 40.6C63.6659 41.68 62.9459 42.64 62.3059 43.52C59.5459 47.08 58.6259 48.36 58.2259 48.36ZM96.04 32.04C95.12 32.04 94.6 31.64 94.6 30.84C94.6 30.48 94.92 29.8 95.48 28.88C95.6 28.72 95.52 28.64 95.36 28.76C93.28 30.68 91.8 31.96 91.12 31.96C90.84 31.96 90.6 31.76 90.6 31.4C90.6 29.92 93.4 27.56 95.2 27.56C95.44 27.56 95.68 27.6 95.84 27.72C96.2 27.36 96.56 27.04 96.96 26.68C101.08 20.88 109.32 11.48 110.76 11.48C111.12 11.48 111.32 11.68 111.32 12C111.32 13.04 103.12 21.6 97.16 27.12L96.4 28.24C96.48 28.4 96.52 28.6 96.52 28.84C96.48 28.96 96.4 29.04 96.28 29.04C96.16 29.04 96.04 28.92 96.04 28.8C96.04 28.76 96.04 28.76 96.04 28.76C95.44 29.76 95.04 30.48 95.04 30.84C95.04 31.36 95.36 31.56 96.04 31.56C97.48 31.56 100.96 30.36 103.6 28.52C103.64 28.52 103.68 28.48 103.72 28.48C103.88 28.48 103.96 28.6 103.96 28.72C103.96 28.8 103.92 28.88 103.84 28.92C101.12 30.8 97.56 32.04 96.04 32.04ZM98.76 24.96C104.32 19.6 110.88 12.76 110.88 12C110.88 11.96 110.88 11.92 110.76 11.92C109.68 11.92 103.08 19.32 98.76 24.96ZM91.2 31.48C91.6 31.48 93.24 30.12 95.48 28.04H95.2C93.68 28.04 91.08 30.16 91.08 31.36C91.08 31.48 91.16 31.48 91.2 31.48ZM104.179 32.12C103.019 32.12 102.299 31.68 102.299 30.88C102.299 29.56 104.299 27.56 105.619 27.56C106.059 27.56 106.339 27.8 106.339 28.2C106.339 28.72 105.419 29.32 104.699 29.32C104.259 29.32 103.939 29.28 103.699 29.16C103.179 29.72 102.779 30.36 102.779 30.88C102.779 31.4 103.259 31.64 104.179 31.64C105.339 31.64 109.099 30.56 111.859 28.56C111.899 28.52 111.939 28.52 111.979 28.52C112.099 28.52 112.219 28.6 112.219 28.72C112.219 28.8 112.179 28.88 112.099 28.92C109.299 31 105.419 32.12 104.179 32.12ZM104.699 28.88C105.139 28.88 105.899 28.44 105.899 28.2C105.899 28.08 105.819 28.04 105.619 28.04C105.139 28.04 104.579 28.36 104.059 28.8C104.219 28.84 104.419 28.88 104.699 28.88ZM120.971 32.2C119.851 32.2 119.291 31.84 119.291 31C119.291 30.88 119.291 30.76 119.331 30.6C119.571 29.28 121.411 27.56 122.611 27.56C123.051 27.56 123.331 27.8 123.331 28.16C123.331 28.64 122.931 29.24 122.451 29.52C122.411 29.52 122.371 29.56 122.331 29.56C122.211 29.56 122.091 29.44 122.091 29.32C122.091 29.24 122.171 29.16 122.211 29.12C122.531 28.92 122.851 28.52 122.891 28.24C122.891 28.12 122.771 28.04 122.611 28.04C121.611 28.04 120.011 29.56 119.771 30.68V31C119.771 31.56 120.091 31.72 120.971 31.72C123.051 31.72 126.531 30.4 129.371 28.56C129.411 28.52 129.451 28.52 129.491 28.52C129.611 28.52 129.731 28.6 129.731 28.72C129.731 28.8 129.691 28.88 129.611 28.92C126.731 30.84 123.131 32.2 120.971 32.2ZM128.362 32.32C127.882 32.32 127.602 31.96 127.602 31.4C127.602 30.28 128.642 28.96 130.042 28.12C130.042 28.08 130.082 28.08 130.082 28.04C130.162 27.88 130.322 27.76 130.482 27.8C130.562 27.84 130.562 27.84 130.642 27.8C130.802 27.72 131.002 27.64 131.202 27.6C131.202 27.56 131.242 27.56 131.282 27.56C131.402 27.56 131.482 27.68 131.482 27.8C131.482 27.92 131.442 28 131.322 28C131.282 28.04 131.202 28.04 131.162 28.08C131.082 28.12 131.082 28.16 131.162 28.2C133.322 29.48 136.122 29.64 138.042 28.52H138.162C138.282 28.52 138.402 28.6 138.402 28.72C138.402 28.8 138.322 28.88 138.242 28.92C136.162 30.12 133.082 29.96 130.762 28.52C130.682 28.44 130.642 28.52 130.642 28.6C130.882 30.16 129.642 32.32 128.362 32.32ZM128.362 31.88C129.322 31.88 130.402 29.84 130.202 28.56C128.962 29.32 128.042 30.48 128.042 31.4C128.042 31.72 128.162 31.88 128.362 31.88ZM138.554 32.12C137.394 32.12 136.674 31.68 136.674 30.88C136.674 29.56 138.674 27.56 139.994 27.56C140.434 27.56 140.714 27.8 140.714 28.2C140.714 28.72 139.794 29.32 139.074 29.32C138.634 29.32 138.314 29.28 138.074 29.16C137.554 29.72 137.154 30.36 137.154 30.88C137.154 31.4 137.634 31.64 138.554 31.64C139.714 31.64 143.474 30.56 146.234 28.56C146.274 28.52 146.314 28.52 146.354 28.52C146.474 28.52 146.594 28.6 146.594 28.72C146.594 28.8 146.554 28.88 146.474 28.92C143.674 31 139.794 32.12 138.554 32.12ZM139.074 28.88C139.514 28.88 140.274 28.44 140.274 28.2C140.274 28.08 140.194 28.04 139.994 28.04C139.514 28.04 138.954 28.36 138.434 28.8C138.594 28.84 138.794 28.88 139.074 28.88ZM150.158 32C149.198 32 148.718 31.6 148.718 30.8C148.718 30.32 148.958 29.8 149.278 29.28C149.558 28.88 149.598 28.8 149.118 29.16C146.958 30.92 145.798 31.68 145.157 31.68C144.797 31.68 144.557 31.44 144.557 31.08C144.557 30.36 145.397 29.24 146.878 27.92C146.918 27.88 146.958 27.84 147.038 27.84C147.158 27.84 147.278 27.96 147.278 28.08C147.278 28.16 147.238 28.2 147.198 28.24C145.838 29.44 145.037 30.52 145.037 31.04C145.037 31.16 145.077 31.24 145.157 31.24C145.638 31.24 146.798 30.44 148.838 28.8C150.118 27.76 150.638 27.32 150.878 27.32C151.438 27.32 151.078 27.84 150.638 28.36C150.038 29.04 149.158 30.04 149.158 30.8C149.158 31.32 149.438 31.56 150.158 31.56C151.398 31.56 155.118 29.96 157.197 28.52C157.238 28.48 157.278 28.48 157.358 28.48C157.478 28.48 157.558 28.6 157.558 28.72C157.558 28.8 157.518 28.84 157.478 28.88C155.438 30.28 151.558 32 150.158 32ZM156.973 36.32C156.213 36.32 155.893 35.92 155.893 35.28C155.893 33.92 158.053 31.8 160.013 29.84C161.733 28.16 163.293 26.6 163.293 25.84C163.293 25.56 163.013 25.28 162.213 24.72C160.733 26.28 158.933 27.88 157.493 28.92C157.453 28.96 157.413 28.96 157.333 28.96C157.213 28.96 157.133 28.88 157.133 28.72C157.133 28.68 157.173 28.6 157.213 28.56C158.813 27.4 160.493 25.88 161.813 24.48C161.093 24 160.693 23.72 160.693 23.36C160.693 22.36 163.493 20.24 164.733 20.24C165.013 20.24 165.173 20.44 165.173 20.72C165.173 21.28 164.053 22.76 162.533 24.4C163.213 25.04 163.773 25.36 163.773 25.84C163.773 26.8 162.053 28.48 160.333 30.2C158.373 32.12 156.333 34.12 156.333 35.28C156.333 35.68 156.493 35.84 156.973 35.84C159.253 35.84 166.093 31.44 170.053 28.56C170.093 28.52 170.133 28.52 170.173 28.52C170.333 28.52 170.413 28.6 170.413 28.72C170.413 28.8 170.373 28.88 170.333 28.92C166.333 31.8 159.373 36.32 156.973 36.32ZM162.133 24.16C162.973 23.28 164.413 21.6 164.693 20.92C164.733 20.8 164.653 20.72 164.533 20.76C163.453 20.96 161.173 22.68 161.173 23.36C161.173 23.44 161.413 23.68 162.133 24.16Z" fill="black"/>
<defs>
<clipPath id="clip0_202_19">
<rect width="39.5655" height="32.2448" fill="white" transform="translate(0 8.72925)"/>
</clipPath>
</defs>
</svg>
