<svg width="22" height="21" viewBox="0 0 22 21" fill="none" xmlns="http://www.w3.org/2000/svg">
    <mask id="mask0_74_7" style="mask-type:luminance" maskUnits="userSpaceOnUse" x="0" y="0" width="22" height="21">
        <path d="M0.580688 0H21.4283V20.963H0.580688V0Z" fill="white"/>
    </mask>
    <g mask="url(#mask0_74_7)">
        <path d="M21.4283 10.4534C21.4283 10.6257 21.4242 10.7979 21.4157 10.9699C21.4074 11.1421 21.3948 11.3138 21.3782 11.4852C21.3614 11.6567 21.3405 11.8277 21.3156 11.998C21.2905 12.1684 21.2613 12.3381 21.2281 12.5071C21.1948 12.6761 21.1574 12.8442 21.1159 13.0113C21.0745 13.1784 21.0291 13.3443 20.9795 13.5092C20.9299 13.674 20.8765 13.8375 20.819 13.9998C20.7616 14.162 20.7001 14.3228 20.6348 14.4819C20.5696 14.641 20.5004 14.7985 20.4275 14.9543C20.3546 15.1099 20.278 15.2637 20.1974 15.4158C20.1171 15.5677 20.033 15.7176 19.9453 15.8653C19.8576 16.013 19.7664 16.1586 19.6717 16.3018C19.5768 16.445 19.4787 16.5859 19.377 16.7242C19.2754 16.8625 19.1704 16.9984 19.0622 17.1315C18.9541 17.2647 18.8426 17.3951 18.728 17.5228C18.6136 17.6505 18.4959 17.7752 18.3753 17.897C18.2547 18.0188 18.1312 18.1376 18.0047 18.2533C17.8783 18.3689 17.7491 18.4815 17.6173 18.5907C17.4855 18.7001 17.351 18.806 17.214 18.9087C17.0769 19.0113 16.9376 19.1104 16.7957 19.2062C16.6539 19.3019 16.5098 19.3939 16.3634 19.4826C16.2171 19.5712 16.0687 19.6561 15.9183 19.7373C15.7678 19.8184 15.6156 19.8958 15.4613 19.9696C15.3071 20.0432 15.1511 20.113 14.9935 20.179C14.8359 20.2449 14.6768 20.3068 14.5162 20.3649C14.3556 20.4229 14.1937 20.477 14.0304 20.5269C13.8672 20.577 13.7027 20.623 13.5373 20.6648C13.3718 20.7066 13.2055 20.7443 13.0382 20.7779C12.8708 20.8116 12.7028 20.841 12.534 20.8663C12.3653 20.8916 12.1961 20.9126 12.0263 20.9295C11.8564 20.9465 11.6864 20.959 11.516 20.9676C11.3457 20.976 11.1751 20.9802 11.0046 20.9802C10.834 20.9802 10.6635 20.976 10.493 20.9676C10.3227 20.959 10.1526 20.9465 9.98285 20.9295C9.81309 20.9126 9.64375 20.8916 9.47499 20.8663C9.30623 20.841 9.13833 20.8116 8.971 20.7779C8.80368 20.7443 8.63721 20.7066 8.47174 20.6648C8.30628 20.623 8.14196 20.577 7.97864 20.5269C7.81547 20.477 7.65344 20.4229 7.49285 20.3649C7.33225 20.3068 7.17309 20.2449 7.0155 20.179C6.85792 20.113 6.70205 20.0432 6.54776 19.9696C6.39361 19.8958 6.24118 19.8184 6.09076 19.7373C5.94034 19.6561 5.79192 19.5712 5.64565 19.4826C5.49924 19.3939 5.35526 19.3019 5.21343 19.2062C5.07161 19.1104 4.93207 19.0113 4.79511 18.9087C4.65801 18.806 4.52364 18.7001 4.39169 18.5907C4.25989 18.4815 4.13067 18.3689 4.00432 18.2533C3.87796 18.1376 3.75447 18.0188 3.63385 17.897C3.51322 17.7752 3.39561 17.6505 3.281 17.5228C3.16639 17.3951 3.05508 17.2647 2.94677 17.1315C2.83861 16.9984 2.73374 16.8625 2.63203 16.7242C2.53046 16.5859 2.43218 16.445 2.33749 16.3018C2.24265 16.1586 2.15139 16.013 2.06372 15.8653C1.97604 15.7176 1.89195 15.5677 1.81158 15.4158C1.73121 15.2637 1.65442 15.1099 1.5815 14.9543C1.50858 14.7985 1.43953 14.641 1.37421 14.4819C1.30888 14.3228 1.24756 14.162 1.19012 13.9998C1.13253 13.8375 1.07909 13.674 1.02952 13.5092C0.980098 13.3443 0.934541 13.1784 0.893139 13.0113C0.851737 12.8442 0.814346 12.6761 0.780966 12.5071C0.74773 12.3381 0.718648 12.1684 0.693577 11.998C0.668507 11.8277 0.647591 11.6567 0.630973 11.4852C0.614211 11.3138 0.601604 11.1421 0.593295 10.9699C0.584986 10.7979 0.580688 10.6257 0.580688 10.4534C0.580688 10.2811 0.584986 10.1089 0.593295 9.93691C0.601604 9.76489 0.614211 9.59301 0.630973 9.42157C0.647591 9.25013 0.668507 9.07927 0.693577 8.90884C0.718648 8.73841 0.74773 8.56871 0.780966 8.39973C0.814346 8.23075 0.851737 8.06278 0.893139 7.89568C0.934541 7.72843 0.980098 7.56249 1.02952 7.3977C1.07909 7.23277 1.13253 7.06929 1.19012 6.90711C1.24756 6.74478 1.30888 6.58419 1.37421 6.42505C1.43953 6.26576 1.50858 6.10835 1.5815 5.95268C1.65442 5.79686 1.73121 5.64307 1.81158 5.49116C1.89195 5.33911 1.97604 5.18937 2.06372 5.04151C2.15139 4.89379 2.24265 4.74825 2.33749 4.60502C2.43218 4.46179 2.53046 4.32102 2.63203 4.18257C2.73374 4.04426 2.83861 3.90841 2.94677 3.77531C3.05508 3.64206 3.16639 3.51171 3.281 3.3841C3.39561 3.25635 3.51322 3.13164 3.63385 3.00982C3.75447 2.88801 3.87796 2.76923 4.00432 2.65363C4.13067 2.53789 4.25989 2.42533 4.39169 2.3161C4.52364 2.20673 4.65801 2.10083 4.79511 1.99825C4.93207 1.89553 5.07161 1.79643 5.21343 1.70065C5.35526 1.60502 5.49924 1.51286 5.64565 1.42432C5.79192 1.33563 5.94034 1.25085 6.09076 1.16955C6.24118 1.08838 6.39361 1.01098 6.54776 0.937342C6.70205 0.863557 6.85792 0.793823 7.0155 0.727851C7.17309 0.662024 7.33225 0.599958 7.49285 0.541943C7.65344 0.483927 7.81547 0.429963 7.97864 0.379905C8.14196 0.329848 8.30628 0.283985 8.47174 0.242029C8.63721 0.200218 8.80368 0.162458 8.971 0.128893C9.13833 0.0953279 9.30623 0.065814 9.47499 0.0404957C9.64375 0.0153221 9.81309 -0.00580058 9.98285 -0.0227277C10.1526 -0.0396547 10.3227 -0.0522416 10.493 -0.0607774C10.6635 -0.0691687 10.834 -0.0733643 11.0046 -0.0733643C11.1751 -0.0733643 11.3457 -0.0691687 11.516 -0.0607774C11.6864 -0.0522416 11.8564 -0.0396547 12.0263 -0.0227277C12.1961 -0.00580058 12.3653 0.0153221 12.534 0.0404957C12.7028 0.065814 12.8708 0.0953279 13.0382 0.128893C13.2055 0.162458 13.3718 0.200218 13.5373 0.242029C13.7027 0.283985 13.8672 0.329848 14.0304 0.379905C14.1937 0.429963 14.3556 0.483927 14.5162 0.541943C14.6768 0.599958 14.8359 0.662024 14.9935 0.727851C15.1511 0.793823 15.3071 0.863557 15.4613 0.937342C15.6156 1.01098 15.7678 1.08838 15.9183 1.16955C16.0687 1.25085 16.2171 1.33563 16.3634 1.42432C16.5098 1.51286 16.6539 1.60502 16.7957 1.70065C16.9376 1.79643 17.0769 1.89553 17.214 1.99825C17.351 2.10083 17.4855 2.20673 17.6173 2.3161C17.7491 2.42533 17.8783 2.53789 18.0047 2.65363C18.1312 2.76923 18.2547 2.88801 18.3753 3.00982C18.4959 3.13164 18.6136 3.25635 18.728 3.3841C18.8426 3.51171 18.9541 3.64206 19.0622 3.77531C19.1704 3.90841 19.2754 4.04426 19.377 4.18257C19.4787 4.32102 19.5768 4.46179 19.6717 4.60502C19.7664 4.74825 19.8576 4.89379 19.9453 5.04151C20.033 5.18937 20.1171 5.33911 20.1974 5.49116C20.278 5.64307 20.3546 5.79686 20.4275 5.95268C20.5004 6.10835 20.5696 6.26576 20.6348 6.42505C20.7001 6.58419 20.7616 6.74478 20.819 6.90711C20.8765 7.06929 20.9299 7.23277 20.9795 7.3977C21.0291 7.56249 21.0745 7.72843 21.1159 7.89568C21.1574 8.06278 21.1948 8.23075 21.2281 8.39973C21.2613 8.56871 21.2905 8.73841 21.3156 8.90884C21.3405 9.07927 21.3614 9.25013 21.3782 9.42157C21.3948 9.59301 21.4074 9.76489 21.4157 9.93691C21.4242 10.1089 21.4283 10.2811 21.4283 10.4534Z" fill="#E4DFDD"/>
    </g>
</svg>
