<svg
    width="20"
    height="19"
    viewBox="0 0 20 19"
    fill="none"
    xmlns="http://www.w3.org/2000/svg"
>
    <path
    d="M9.99967 18.9527C9.93978 18.9527 9.87924 18.9277 9.83368 18.8776L1.52134 9.74352C0.540312 8.66552 0 7.23557 0 5.71693C0 4.18683 0.540312 2.75045 1.52134 1.67173C2.50171 0.59444 3.80497 0.00143066 5.1922 0H5.1935C6.58139 0 7.88595 0.593725 8.86697 1.67173L9.99967 2.9164L11.1324 1.67173C12.1134 0.593725 13.418 0 14.8052 0H14.8104C16.1957 0.00143066 17.4983 0.595155 18.4787 1.67173C19.4597 2.75045 20 4.18326 20 5.70763C20 7.232 19.4597 8.6648 18.4787 9.74352L10.1657 18.8776C10.1195 18.9277 10.0596 18.9527 9.99967 18.9527ZM5.1935 0.515754C5.1935 0.515754 5.19285 0.515754 5.1922 0.515754C3.93061 0.516469 2.74517 1.05654 1.85333 2.03655C0.960844 3.01727 0.469355 4.32418 0.469355 5.71693C0.469355 7.09823 0.960844 8.3987 1.85333 9.37871L9.99967 18.3304L18.146 9.37871C19.0385 8.39799 19.53 7.09465 19.53 5.70763C19.53 4.3206 19.0385 3.01727 18.146 2.03655C17.2542 1.05726 16.0694 0.517184 14.8098 0.515754C14.8078 0.515754 14.8058 0.515754 14.8045 0.515754C13.5429 0.515754 12.3562 1.05511 11.4637 2.03655L10.165 3.46363C10.0732 3.56449 9.92481 3.56449 9.83302 3.46363L8.53432 2.03655C7.64313 1.05583 6.45575 0.515754 5.1935 0.515754Z"
    fill="#302D2C"
    />
</svg>