<svg width="74" height="56" viewBox="0 0 74 56" fill="none" xmlns="http://www.w3.org/2000/svg">
<mask id="mask0_231_105" style="mask-type:luminance" maskUnits="userSpaceOnUse" x="0" y="0" width="74" height="56">
<path fill-rule="evenodd" clip-rule="evenodd" d="M0 0H73.4594V55.0945H0V0Z" fill="white"/>
</mask>
<g mask="url(#mask0_231_105)">
<path fill-rule="evenodd" clip-rule="evenodd" d="M0 0V55.0945H73.4594V0H0Z" fill="#F7FCFF"/>
<mask id="mask1_231_105" style="mask-type:luminance" maskUnits="userSpaceOnUse" x="0" y="0" width="74" height="56">
<path fill-rule="evenodd" clip-rule="evenodd" d="M0 0V55.0945H73.4594V0H0Z" fill="white"/>
</mask>
<g mask="url(#mask1_231_105)">
<path fill-rule="evenodd" clip-rule="evenodd" d="M0 0V18.3648H73.4594V0H0Z" fill="#FFA500"/>
<path fill-rule="evenodd" clip-rule="evenodd" d="M0 36.7297V55.0945H73.4594V36.7297H0Z" fill="#37B074"/>
<path fill-rule="evenodd" clip-rule="evenodd" d="M27.5473 27.5473C27.5473 32.6185 31.6585 36.7297 36.7297 36.7297C41.8009 36.7297 45.9121 32.6185 45.9121 27.5473C45.9121 22.4759 41.8009 18.3648 36.7297 18.3648C31.6585 18.3648 27.5473 22.4759 27.5473 27.5473ZM43.6165 27.5473C43.6165 31.3508 40.5333 34.4341 36.7297 34.4341C32.9261 34.4341 29.8429 31.3508 29.8429 27.5473C29.8429 23.7437 32.9261 20.6604 36.7297 20.6604C40.5333 20.6604 43.6165 23.7437 43.6165 27.5473Z" fill="#3D58DB"/>
<path fill-rule="evenodd" clip-rule="evenodd" d="M36.7168 29.5231L35.4065 36.6868L36.1675 29.4441L32.8919 35.9483L35.6625 29.2134L30.6872 34.5314L35.2428 28.85L28.9708 32.5508L34.9428 28.3829L27.8822 30.1668L34.7862 27.8503L27.5092 27.5725L34.7862 27.295L27.8822 24.9785L34.9428 26.7624L28.9708 22.5945L35.2428 26.2952L30.6872 20.6138L35.6625 25.9318L32.8919 19.1969L36.1675 25.7011L35.4065 18.4586L36.7168 25.6222L38.0274 18.4586L37.2664 25.7011L40.542 19.1969L37.7714 25.9318L42.7467 20.6138L38.1911 26.2952L44.4631 22.5945L38.4911 26.7624L45.5517 24.9785L38.6477 27.295L45.9247 27.5725L38.6477 27.8503L45.5517 30.1668L38.4911 28.3829L44.4631 32.5508L38.1911 28.85L42.7467 34.5314L37.7714 29.2134L40.542 35.9483L37.2664 29.4441L38.0274 36.6868L36.7168 29.5231Z" fill="#3D58DB"/>
</g>
</g>
</svg>
