<svg width="84" height="88" viewBox="0 0 84 88" fill="none" xmlns="http://www.w3.org/2000/svg">
    <mask id="mask0_1_135" style="mask-type:luminance" maskUnits="userSpaceOnUse" x="0" y="0" width="84" height="88">
        <path d="M0 0H83.1389V87.1085H0V0Z" fill="white"/>
    </mask>
    <g mask="url(#mask0_1_135)">
        <path d="M51.0823 1.62328H42.3882V1.90735e-05H0.00891113V44.4027H1.5582V87.113H2.21151V52.832L3.8728 51.0914V33.2942L5.53983 31.5475V18.4396C6.23191 17.1127 7.00871 15.8445 7.87453 14.6349C8.73891 13.4254 9.68084 12.2866 10.7003 11.2169C11.7212 10.1488 12.8081 9.16189 13.9626 8.25473C15.117 7.34907 16.3274 6.53368 17.5938 5.81006H30.103L31.77 4.06344H48.7519L50.4146 2.32283H83.132V1.62328H51.0823ZM1.5582 7.74323V44.0597H0.336286V0.343025H42.0623V1.62328H1.5582V7.74323ZM2.21151 7.74323V6.3712C2.45992 6.35165 2.70545 6.30952 2.94667 6.24483C3.1879 6.17864 3.42194 6.09289 3.64881 5.98307C3.87567 5.87475 4.09105 5.74537 4.29638 5.59643C4.5017 5.4475 4.69124 5.28201 4.86785 5.09697C5.04446 4.91192 5.20384 4.71334 5.34742 4.49821C5.48957 4.28458 5.61306 4.05742 5.71644 3.82123C5.82126 3.58353 5.90453 3.33831 5.96771 3.08557C6.02945 2.83283 6.06966 2.57557 6.08976 2.31531H7.4007C7.38059 2.66433 7.33034 3.01035 7.24993 3.35034C7.17096 3.69185 7.06183 4.02131 6.92399 4.34175C6.78615 4.66069 6.62246 4.96608 6.43293 5.25493C6.24196 5.54227 6.02945 5.81156 5.79254 6.05979C5.55562 6.30651 5.2986 6.53067 5.02436 6.73076C4.74867 6.92934 4.45719 7.10084 4.15279 7.24527C3.84695 7.38819 3.5325 7.50252 3.20656 7.58677C2.88206 7.66951 2.55181 7.72217 2.21726 7.74323H2.21151ZM3.21948 50.8025L2.21151 51.8601V35.0333L3.21948 33.9757V50.8025ZM3.21948 33.0083L2.21151 34.0674V10.1413C2.55038 10.1277 2.88637 10.0886 3.21948 10.0269V33.0083ZM4.88651 15.5632V31.2602L3.8728 32.3238V9.87799C4.21884 9.78321 4.55627 9.66286 4.88651 9.51693V15.5632ZM4.88651 8.76924C4.55914 8.93171 4.22171 9.0641 3.8728 9.1649C3.65886 9.2341 3.44061 9.28976 3.21948 9.33038C2.88637 9.39808 2.55038 9.44021 2.21151 9.45224V8.43075C2.58771 8.40968 2.95959 8.35252 3.32717 8.25924C3.69475 8.16597 4.05085 8.0396 4.39545 7.87863C4.74006 7.71615 5.06887 7.52358 5.37901 7.29943C5.69059 7.07527 5.9792 6.82253 6.24627 6.54271C6.51334 6.26289 6.75456 5.9605 6.9685 5.63404C7.18245 5.30909 7.36624 4.96458 7.51987 4.60352C7.67494 4.24246 7.79556 3.86937 7.88458 3.48424C7.9736 3.10061 8.02817 2.70947 8.04827 2.31531H9.03183C9.01891 2.67035 8.98014 3.02238 8.91552 3.37291C8.87676 3.60309 8.82363 3.83176 8.75758 4.05591C8.65994 4.42149 8.53502 4.77502 8.37995 5.11803C8.27657 5.35272 8.1617 5.58139 8.03535 5.80254C7.41506 6.89023 6.58513 7.75827 5.54701 8.40818C5.33594 8.54207 5.11769 8.66242 4.89369 8.77074L4.88651 8.76924ZM13.875 5.80254C10.5826 8.17048 7.80704 11.0785 5.54701 14.5281V9.201C6.23478 8.81437 6.85507 8.33145 7.40788 7.75225C7.96068 7.17456 8.42159 6.52315 8.7906 5.80254H13.875ZM10.482 10.9732C8.54795 12.9981 6.90245 15.2548 5.54701 17.7431V15.1419C6.72154 13.29 8.05975 11.5795 9.56022 10.0074C11.0607 8.43526 12.6933 7.03315 14.4594 5.80254H16.9434C14.5685 7.22421 12.4147 8.94676 10.482 10.9732ZM29.846 5.11803H9.09357C9.23285 4.77352 9.34772 4.41848 9.43818 4.05591H30.8597L29.846 5.11803ZM31.5216 3.37291H9.57745C9.63776 3.02238 9.67509 2.67035 9.68801 2.31531H32.5253L31.5216 3.37291ZM48.5049 3.37291H32.4377L33.4471 2.31531H49.5072L48.5049 3.37291Z" fill="black"/>
    </g>
</svg>
