<svg
    width="20"
    height="22"
    viewBox="0 0 20 22"
    fill="none"
    xmlns="http://www.w3.org/2000/svg"
>
    <path
    d="M10 21.5376C4.70627 21.5376 0.400024 16.8056 0.400024 10.9886C0.400024 5.17149 4.70627 0.439545 10 0.439545C15.2938 0.439545 19.6 5.17149 19.6 10.9886C19.6 16.8056 15.2938 21.5376 10 21.5376ZM3.96815 18.5432C5.58002 20.0994 7.69127 21.0431 10 21.0431C12.3081 21.0431 14.42 20.0994 16.0313 18.5432H16.025C16.025 15.5619 14.1869 12.9383 11.5544 12.163C11.4644 12.1369 11.3994 12.0531 11.3888 11.9521C11.3775 11.8518 11.425 11.7536 11.5063 11.7062C12.555 11.0902 13.2063 9.89657 13.2063 8.59237C13.2063 6.6419 11.765 5.05474 9.99377 5.05474C8.22252 5.05474 6.78065 6.6419 6.78065 8.59237C6.78065 9.89657 7.4319 11.0902 8.48065 11.7062C8.5619 11.7536 8.60877 11.8518 8.59815 11.9521C8.58752 12.0524 8.5219 12.1369 8.43315 12.163C5.80752 12.9356 3.97502 15.5591 3.97502 18.5432H3.96815ZM12.1469 11.847C14.5925 12.7927 16.3006 15.2624 16.4625 18.0995C18.1219 16.2789 19.15 13.7632 19.15 10.9886C19.15 5.44414 15.0456 0.93403 10 0.93403C4.9544 0.93403 0.850024 5.44414 0.850024 10.9886C0.850024 13.7632 1.87815 16.2789 3.53752 18.0995C3.69877 15.2597 5.40127 12.7914 7.8394 11.847C6.89815 11.0957 6.33002 9.89245 6.33002 8.59237C6.33002 6.36924 7.97315 4.56025 9.99252 4.56025C12.0125 4.56025 13.6557 6.36856 13.6557 8.59237C13.6563 9.89245 13.0881 11.0957 12.1469 11.847Z"
    fill="#302D2C"
    />
</svg>