<svg width="96" height="41" viewBox="0 0 96 41" fill="none" xmlns="http://www.w3.org/2000/svg">
    <g clip-path="url(#clip0_202_19)">
        <mask id="mask0_202_19" style="mask-type:luminance" maskUnits="userSpaceOnUse" x="3" y="8" width="33" height="33">
            <path d="M3.92717 8.72925H35.6521V40.9172H3.92717V8.72925Z" fill="white"/>
        </mask>
        <g mask="url(#mask0_202_19)">
            <path d="M35.6521 24.7801C35.6521 25.0447 35.6458 25.3091 35.6329 25.5732C35.6203 25.8375 35.6011 26.1012 35.5758 26.3645C35.5503 26.6277 35.5185 26.8903 35.4805 27.1518C35.4424 27.4134 35.3979 27.674 35.3473 27.9335C35.2967 28.1929 35.2398 28.4511 35.1766 28.7077C35.1136 28.9642 35.0445 29.219 34.9691 29.4723C34.8936 29.7253 34.8123 29.9763 34.7249 30.2256C34.6375 30.4746 34.544 30.7214 34.4446 30.9658C34.3454 31.2101 34.2401 31.4518 34.1291 31.6911C34.0181 31.9301 33.9015 32.1662 33.779 32.3997C33.6567 32.633 33.5287 32.8631 33.3953 33.0899C33.2619 33.3167 33.123 33.5402 32.9789 33.7601C32.8346 33.98 32.6852 34.1964 32.5305 34.4088C32.3759 34.6212 32.2161 34.8298 32.0515 35.0341C31.8869 35.2387 31.7173 35.4389 31.5429 35.635C31.3687 35.831 31.1897 36.0225 31.0062 36.2095C30.8226 36.3965 30.6347 36.5789 30.4422 36.7566C30.2499 36.9341 30.0533 37.107 29.8527 37.2747C29.6521 37.4426 29.4474 37.6052 29.239 37.763C29.0304 37.9205 28.8182 38.0726 28.6024 38.2197C28.3866 38.3667 28.1673 38.508 27.9445 38.6442C27.7219 38.7802 27.496 38.9106 27.2671 39.0352C27.0382 39.1598 26.8065 39.2787 26.5717 39.3919C26.3371 39.505 26.0997 39.6121 25.8599 39.7134C25.6201 39.8147 25.3779 39.9098 25.1335 39.9988C24.8891 40.0879 24.6428 40.171 24.3942 40.2477C24.1459 40.3245 23.8957 40.3952 23.6439 40.4594C23.3921 40.5236 23.139 40.5815 22.8843 40.6331C22.6297 40.6848 22.374 40.7299 22.1172 40.7688C21.8604 40.8077 21.6029 40.8399 21.3446 40.8659C21.086 40.8919 20.8272 40.9112 20.568 40.9243C20.3088 40.9372 20.0492 40.9436 19.7897 40.9436C19.5301 40.9436 19.2707 40.9372 19.0112 40.9243C18.752 40.9112 18.4933 40.8919 18.2349 40.8659C17.9766 40.8399 17.7189 40.8077 17.4621 40.7688C17.2053 40.7299 16.9498 40.6848 16.6951 40.6331C16.4405 40.5815 16.1872 40.5236 15.9354 40.4594C15.6836 40.3952 15.4335 40.3245 15.185 40.2477C14.9367 40.171 14.6901 40.0879 14.4458 39.9988C14.2014 39.9098 13.9592 39.8147 13.7194 39.7134C13.4795 39.6121 13.2424 39.505 13.0076 39.3919C12.773 39.2787 12.541 39.1598 12.3121 39.0352C12.0832 38.9106 11.8574 38.7802 11.6348 38.6442C11.412 38.508 11.1929 38.3667 10.9771 38.2197C10.7612 38.0726 10.5489 37.9205 10.3405 37.763C10.1318 37.6052 9.92735 37.4426 9.72657 37.2747C9.52601 37.107 9.32936 36.9341 9.13708 36.7566C8.9448 36.5789 8.75688 36.3965 8.57332 36.2095C8.38976 36.0225 8.21077 35.831 8.03637 35.635C7.86196 35.4389 7.69257 35.2387 7.52776 35.0341C7.36317 34.8298 7.20359 34.6212 7.0488 34.4088C6.89423 34.1964 6.74468 33.98 6.60058 33.7601C6.45626 33.5402 6.31739 33.3167 6.18397 33.0899C6.05055 32.8631 5.92258 32.633 5.80028 32.3997C5.67798 32.1662 5.56113 31.9301 5.45016 31.6911C5.3392 31.4518 5.23412 31.2101 5.13471 30.9658C5.0353 30.7214 4.94199 30.4746 4.85457 30.2256C4.76693 29.9763 4.68561 29.7253 4.61018 29.4723C4.53497 29.219 4.46565 28.9642 4.40264 28.7077C4.33964 28.4511 4.28274 28.1929 4.23194 27.9335C4.18137 27.674 4.13711 27.4134 4.09896 27.1518C4.06081 26.8903 4.02898 26.6277 4.00369 26.3645C3.97818 26.1012 3.959 25.8375 3.94635 25.5732C3.93371 25.3091 3.92717 25.0447 3.92717 24.7801C3.92717 24.5156 3.93371 24.2512 3.94635 23.9871C3.959 23.7229 3.97818 23.459 4.00369 23.1958C4.02898 22.9326 4.06081 22.6702 4.09896 22.4085C4.13711 22.1468 4.18137 21.8863 4.23194 21.6268C4.28274 21.3673 4.33964 21.1094 4.40264 20.8528C4.46565 20.596 4.53497 20.3412 4.61018 20.0882C4.68561 19.835 4.76693 19.5839 4.85457 19.3349C4.94199 19.0857 5.0353 18.8391 5.13471 18.5947C5.23412 18.3501 5.3392 18.1085 5.45016 17.8694C5.56113 17.6302 5.67798 17.394 5.80028 17.1608C5.92258 16.9273 6.05055 16.6974 6.18397 16.4704C6.31739 16.2435 6.45626 16.0201 6.60058 15.8001C6.74468 15.5802 6.89423 15.3641 7.0488 15.1515C7.20359 14.9391 7.36317 14.7305 7.52776 14.5261C7.69257 14.3215 7.86196 14.1214 8.03637 13.9255C8.21077 13.7293 8.38976 13.5378 8.57332 13.3508C8.75688 13.1637 8.9448 12.9813 9.13708 12.8039C9.32936 12.6261 9.52601 12.4533 9.72657 12.2856C9.92735 12.1176 10.1318 11.955 10.3405 11.7975C10.5489 11.6398 10.7612 11.4876 10.9771 11.3406C11.1929 11.1937 11.412 11.0522 11.6348 10.9163C11.8574 10.7801 12.0832 10.6499 12.3121 10.5251C12.541 10.4005 12.773 10.2816 13.0076 10.1685C13.2424 10.0552 13.4795 9.94818 13.7194 9.84688C13.9592 9.7458 14.2014 9.6505 14.4458 9.56142C14.6901 9.47234 14.9367 9.38948 15.185 9.31262C15.4335 9.23576 15.6836 9.16534 15.9354 9.10091C16.1872 9.03671 16.4405 8.97873 16.6951 8.9272C16.9498 8.87566 17.2053 8.83034 17.4621 8.79147C17.7189 8.75281 17.9766 8.72038 18.2349 8.69439C18.4933 8.6684 18.752 8.64907 19.0112 8.63596C19.2707 8.62308 19.5301 8.61664 19.7897 8.61664C20.0492 8.61664 20.3088 8.62308 20.568 8.63596C20.8272 8.64907 21.086 8.6684 21.3446 8.69439C21.6029 8.72038 21.8604 8.75281 22.1172 8.79147C22.374 8.83034 22.6297 8.87566 22.8843 8.9272C23.139 8.97873 23.3921 9.03671 23.6439 9.10091C23.8957 9.16534 24.1459 9.23576 24.3942 9.31262C24.6428 9.38948 24.8891 9.47234 25.1335 9.56142C25.3779 9.6505 25.6201 9.7458 25.8599 9.84688C26.0997 9.94818 26.3371 10.0552 26.5717 10.1685C26.8065 10.2816 27.0382 10.4005 27.2671 10.5251C27.496 10.6499 27.7219 10.7801 27.9445 10.9163C28.1673 11.0522 28.3866 11.1937 28.6024 11.3406C28.8182 11.4876 29.0304 11.6398 29.239 11.7975C29.4474 11.955 29.6521 12.1176 29.8527 12.2856C30.0533 12.4533 30.2499 12.6261 30.4422 12.8039C30.6347 12.9813 30.8226 13.1637 31.0062 13.3508C31.1897 13.5378 31.3687 13.7293 31.5429 13.9255C31.7173 14.1214 31.8869 14.3215 32.0515 14.5261C32.2161 14.7305 32.3759 14.9391 32.5305 15.1515C32.6852 15.3641 32.8346 15.5802 32.9789 15.8001C33.123 16.0201 33.2619 16.2435 33.3953 16.4704C33.5287 16.6974 33.6567 16.9273 33.779 17.1608C33.9015 17.394 34.0181 17.6302 34.1291 17.8694C34.2401 18.1085 34.3454 18.3501 34.4446 18.5947C34.544 18.8391 34.6375 19.0857 34.7249 19.3349C34.8123 19.5839 34.8936 19.835 34.9691 20.0882C35.0445 20.3412 35.1136 20.596 35.1766 20.8528C35.2398 21.1094 35.2967 21.3673 35.3473 21.6268C35.3979 21.8863 35.4424 22.1468 35.4805 22.4085C35.5185 22.6702 35.5503 22.9326 35.5758 23.1958C35.6011 23.459 35.6203 23.7229 35.6329 23.9871C35.6458 24.2512 35.6521 24.5156 35.6521 24.7801Z" fill="#B03737"/>
        </g>
        <mask id="mask1_202_19" style="mask-type:luminance" maskUnits="userSpaceOnUse" x="7" y="15" width="25" height="20">
            <path d="M7.78522 15.0793H31.7775V34.5863H7.78522V15.0793Z" fill="white"/>
        </mask>
        <g mask="url(#mask1_202_19)">
            <path d="M13.6115 15.9432L15.1047 19.7959H8.61549C8.59086 19.7959 8.56753 19.8003 8.54507 19.8065L13.6268 15.7104C13.5897 15.7797 13.5808 15.8641 13.6115 15.9432ZM30.9648 19.7959H24.596L25.9716 15.9361C25.9993 15.8588 25.9899 15.7777 25.9542 15.7106L31.0352 19.8063C31.0128 19.8003 30.9895 19.7959 30.9648 19.7959ZM31.2016 19.9402L31.2264 19.9602L31.2262 19.9605H31.2269L31.2168 19.9725C31.2125 19.9613 31.2075 19.9507 31.2016 19.9402ZM24.4068 20.3477H30.914L20.2132 33.5944L24.4068 20.3477ZM15.3057 20.3477L19.4997 33.5962L8.67065 20.3477H15.3057ZM19.6021 15.6435L15.6056 19.5866L14.1149 15.7404C14.0979 15.6962 14.07 15.66 14.0364 15.6315H19.6172L19.6021 15.6435ZM24.0957 19.5841L19.9756 15.6406L19.9638 15.6315H25.5439C25.5088 15.6617 25.4798 15.7004 25.4628 15.7477L24.0957 19.5841ZM23.8382 20.3477L19.8561 32.9257L15.8744 20.3477H23.8382ZM19.7933 16.2231L23.526 19.7959H16.1718L19.7933 16.2231ZM8.3541 19.9605H8.35432L8.3541 19.9602L8.37895 19.9402C8.37329 19.9505 8.36805 19.9609 8.36369 19.972L8.3541 19.9605ZM31.5491 19.5168L26.1916 15.1986C26.0959 15.1215 25.9777 15.0797 25.8559 15.0797H13.7247C13.6028 15.0797 13.4844 15.1215 13.389 15.1986L8.01837 19.5275C7.87253 19.6448 7.79622 19.8303 7.81584 20.0187C7.82762 20.1328 7.87383 20.2384 7.94556 20.3226L19.4421 34.3877C19.5448 34.5136 19.6972 34.5863 19.8579 34.5863H19.8594C20.0207 34.5858 20.1733 34.5121 20.2756 34.3852L31.6385 20.3186C31.7191 20.2224 31.768 20.0971 31.768 19.9605C31.768 19.7787 31.6821 19.6175 31.5491 19.5168Z" fill="#F8F7F2"/>
        </g>
    </g>
    <path d="M51.5472 32.96C49.4272 32.96 47.2272 32.04 45.1872 31.12C43.9472 31.76 42.6272 32.12 41.3072 32.12C39.3472 32.12 38.0272 31.36 38.0272 30.16C38.0272 29.32 38.7872 28.76 39.9072 28.76C40.9872 28.76 41.9472 29.16 45.1872 30.64C47.3472 29.56 49.3472 27.76 51.2272 25.92C48.9472 26.56 46.3472 26.8 43.5872 26.36C43.5072 26.36 43.4272 26.24 43.4272 26.16C43.4272 26 43.5072 25.92 43.6272 25.92H43.6672C46.6672 26.4 49.4672 26.04 51.8672 25.28C52.5872 24.52 53.3072 23.76 53.9472 23.04C56.1072 20.72 57.9072 18.76 59.1472 18.76C59.6272 18.76 59.9072 19.04 59.9072 19.52C59.9072 20.96 56.7872 24.08 52.1472 25.64C50.2272 27.64 48.0272 29.64 45.7472 30.88C47.6272 31.72 49.6272 32.48 51.5472 32.48C53.2672 32.48 55.2672 31.4 57.8672 28.8C57.9072 28.76 57.9472 28.72 58.0272 28.72C58.1472 28.72 58.2672 28.8 58.2672 28.96C58.2672 29 58.2272 29.04 58.1872 29.08C55.5072 31.76 53.3872 32.96 51.5472 32.96ZM52.7872 24.96C56.8272 23.4 59.4672 20.76 59.4672 19.52C59.4672 19.32 59.3872 19.24 59.1472 19.24C58.1072 19.24 56.4272 21.04 54.2672 23.36C53.8272 23.88 53.3072 24.4 52.7872 24.96ZM41.3072 31.64C42.4272 31.64 43.5472 31.36 44.6672 30.88C41.8272 29.6 40.8272 29.24 39.9072 29.24C39.0272 29.24 38.5072 29.6 38.5072 30.16C38.5072 31.08 39.5872 31.64 41.3072 31.64ZM77.0906 28.52C77.2506 28.52 77.3306 28.6 77.3306 28.72C77.3306 28.8 77.2906 28.88 77.2506 28.92C70.1306 33.88 65.8106 36.28 64.0106 36.28C63.2506 36.28 62.9306 35.92 62.9306 35.28C62.9306 33.92 65.0906 31.8 67.0506 29.84C68.7706 28.16 70.3306 26.6 70.3306 25.84C70.3306 25.56 70.0106 25.24 69.1306 24.68C66.5706 26.64 62.8106 28.4 59.3706 28.28C59.3306 28.32 59.3306 28.32 59.2906 28.32C59.6906 29.88 58.3706 32.32 57.0506 32.32C56.5706 32.32 56.2906 31.96 56.2906 31.4C56.2906 30.28 57.3706 28.92 58.7706 28.08C58.7706 27.92 58.9706 27.8 59.2106 27.84H59.2506C59.4506 27.72 59.6906 27.64 59.8906 27.6C59.9306 27.56 59.9306 27.56 59.9706 27.56C60.0906 27.56 60.2106 27.68 60.2106 27.8C60.2106 27.8 60.2106 27.84 60.1706 27.84C63.2906 27.68 66.5306 26.12 68.7706 24.44C68.0906 23.96 67.7306 23.68 67.7306 23.36C67.7306 22.36 70.5306 20.24 71.7706 20.24C72.0506 20.24 72.2106 20.44 72.2106 20.72C72.2106 21.64 71.1706 23.04 69.5306 24.36C70.4506 25 70.8106 25.36 70.8106 25.84C70.8106 26.8 69.0906 28.48 67.3706 30.16C65.4106 32.12 63.3706 34.12 63.3706 35.28C63.3706 35.68 63.5306 35.84 64.0106 35.84C66.2906 35.84 72.8106 31.44 76.9706 28.56C77.0106 28.52 77.0506 28.52 77.0906 28.52ZM68.2106 23.36C68.2106 23.44 68.4106 23.64 69.1706 24.12C70.7306 22.88 71.7706 21.56 71.7706 20.72C70.8106 20.72 68.2106 22.64 68.2106 23.36ZM57.0506 31.88C58.0506 31.88 59.0906 29.84 58.8906 28.56C57.6506 29.32 56.7706 30.48 56.7706 31.4C56.7706 31.72 56.8506 31.88 57.0506 31.88ZM80.2369 32.04C79.3169 32.04 78.7969 31.64 78.7969 30.84C78.7969 30.48 79.1169 29.8 79.6769 28.88C79.7969 28.72 79.7169 28.64 79.5569 28.76C77.4769 30.68 75.9969 31.96 75.3169 31.96C75.0369 31.96 74.7969 31.76 74.7969 31.4C74.7969 29.92 77.5969 27.56 79.3969 27.56C79.6369 27.56 79.8769 27.6 80.0369 27.72C80.3969 27.36 80.7569 27.04 81.1569 26.68C85.2769 20.88 93.5169 11.48 94.9569 11.48C95.3169 11.48 95.5169 11.68 95.5169 12C95.5169 13.04 87.3169 21.6 81.3569 27.12L80.5969 28.24C80.6769 28.4 80.7169 28.6 80.7169 28.84C80.6769 28.96 80.5969 29.04 80.4769 29.04C80.3569 29.04 80.2369 28.92 80.2369 28.8C80.2369 28.76 80.2369 28.76 80.2369 28.76C79.6369 29.76 79.2369 30.48 79.2369 30.84C79.2369 31.36 79.5569 31.56 80.2369 31.56C81.6769 31.56 85.1569 30.36 87.7969 28.52C87.8369 28.52 87.8769 28.48 87.9169 28.48C88.0769 28.48 88.1569 28.6 88.1569 28.72C88.1569 28.8 88.1169 28.88 88.0369 28.92C85.3169 30.8 81.7569 32.04 80.2369 32.04ZM82.9569 24.96C88.5169 19.6 95.0769 12.76 95.0769 12C95.0769 11.96 95.0769 11.92 94.9569 11.92C93.8769 11.92 87.2769 19.32 82.9569 24.96ZM75.3969 31.48C75.7969 31.48 77.4369 30.12 79.6769 28.04H79.3969C77.8769 28.04 75.2769 30.16 75.2769 31.36C75.2769 31.48 75.3569 31.48 75.3969 31.48Z" fill="black"/>
    <defs>
        <clipPath id="clip0_202_19">
            <rect width="39.5655" height="32.2448" fill="white" transform="translate(0 8.72925)"/>
        </clipPath>
    </defs>
</svg>
