<svg width="91" height="41" viewBox="0 0 91 41" fill="none" xmlns="http://www.w3.org/2000/svg">
    <g clip-path="url(#clip0_15_48)">
    <mask id="mask0_15_48" style="mask-type:luminance" maskUnits="userSpaceOnUse" x="3" y="8" width="33" height="33">
        <path d="M3.92717 8.72925H35.6521V40.9172H3.92717V8.72925Z" fill="white"/>
    </mask>
    <g mask="url(#mask0_15_48)">
        <path d="M35.6521 24.7801C35.6521 25.0447 35.6458 25.3091 35.6329 25.5732C35.6203 25.8375 35.6011 26.1012 35.5758 26.3645C35.5503 26.6277 35.5185 26.8903 35.4805 27.1518C35.4424 27.4134 35.3979 27.674 35.3473 27.9335C35.2967 28.1929 35.2398 28.4511 35.1766 28.7077C35.1136 28.9642 35.0445 29.219 34.9691 29.4723C34.8936 29.7253 34.8123 29.9763 34.7249 30.2256C34.6375 30.4746 34.544 30.7214 34.4446 30.9658C34.3454 31.2101 34.2401 31.4518 34.1291 31.6911C34.0181 31.9301 33.9015 32.1662 33.779 32.3997C33.6567 32.633 33.5287 32.8631 33.3953 33.0899C33.2619 33.3167 33.123 33.5402 32.9789 33.7601C32.8346 33.98 32.6852 34.1964 32.5305 34.4088C32.3759 34.6212 32.2161 34.8298 32.0515 35.0341C31.8869 35.2387 31.7173 35.4389 31.5429 35.635C31.3687 35.831 31.1897 36.0225 31.0062 36.2095C30.8226 36.3965 30.6347 36.5789 30.4422 36.7566C30.2499 36.9341 30.0533 37.107 29.8527 37.2747C29.6521 37.4426 29.4474 37.6052 29.239 37.763C29.0304 37.9205 28.8182 38.0726 28.6024 38.2197C28.3866 38.3667 28.1673 38.508 27.9445 38.6442C27.7219 38.7802 27.496 38.9106 27.2671 39.0352C27.0382 39.1598 26.8065 39.2787 26.5717 39.3919C26.3371 39.505 26.0997 39.6121 25.8599 39.7134C25.6201 39.8147 25.3779 39.9098 25.1335 39.9988C24.8891 40.0879 24.6428 40.171 24.3942 40.2477C24.1459 40.3245 23.8957 40.3952 23.6439 40.4594C23.3921 40.5236 23.139 40.5815 22.8843 40.6331C22.6297 40.6848 22.374 40.7299 22.1172 40.7688C21.8604 40.8077 21.6029 40.8399 21.3446 40.8659C21.086 40.8919 20.8272 40.9112 20.568 40.9243C20.3088 40.9372 20.0492 40.9436 19.7897 40.9436C19.5301 40.9436 19.2707 40.9372 19.0112 40.9243C18.752 40.9112 18.4933 40.8919 18.2349 40.8659C17.9766 40.8399 17.7189 40.8077 17.4621 40.7688C17.2053 40.7299 16.9498 40.6848 16.6951 40.6331C16.4405 40.5815 16.1872 40.5236 15.9354 40.4594C15.6836 40.3952 15.4335 40.3245 15.185 40.2477C14.9367 40.171 14.6901 40.0879 14.4458 39.9988C14.2014 39.9098 13.9592 39.8147 13.7194 39.7134C13.4795 39.6121 13.2424 39.505 13.0076 39.3919C12.773 39.2787 12.541 39.1598 12.3121 39.0352C12.0832 38.9106 11.8574 38.7802 11.6348 38.6442C11.412 38.508 11.1929 38.3667 10.9771 38.2197C10.7612 38.0726 10.5489 37.9205 10.3405 37.763C10.1318 37.6052 9.92735 37.4426 9.72657 37.2747C9.52601 37.107 9.32936 36.9341 9.13708 36.7566C8.9448 36.5789 8.75688 36.3965 8.57332 36.2095C8.38976 36.0225 8.21077 35.831 8.03637 35.635C7.86196 35.4389 7.69257 35.2387 7.52776 35.0341C7.36317 34.8298 7.20359 34.6212 7.0488 34.4088C6.89423 34.1964 6.74468 33.98 6.60058 33.7601C6.45626 33.5402 6.31739 33.3167 6.18397 33.0899C6.05055 32.8631 5.92258 32.633 5.80028 32.3997C5.67798 32.1662 5.56113 31.9301 5.45016 31.6911C5.3392 31.4518 5.23412 31.2101 5.13471 30.9658C5.0353 30.7214 4.94199 30.4746 4.85457 30.2256C4.76693 29.9763 4.68561 29.7253 4.61018 29.4723C4.53497 29.219 4.46565 28.9642 4.40264 28.7077C4.33964 28.4511 4.28274 28.1929 4.23194 27.9335C4.18137 27.674 4.13711 27.4134 4.09896 27.1518C4.06081 26.8903 4.02898 26.6277 4.00369 26.3645C3.97818 26.1012 3.959 25.8375 3.94635 25.5732C3.93371 25.3091 3.92717 25.0447 3.92717 24.7801C3.92717 24.5156 3.93371 24.2512 3.94635 23.9871C3.959 23.7229 3.97818 23.459 4.00369 23.1958C4.02898 22.9326 4.06081 22.6702 4.09896 22.4085C4.13711 22.1468 4.18137 21.8863 4.23194 21.6268C4.28274 21.3673 4.33964 21.1094 4.40264 20.8528C4.46565 20.596 4.53497 20.3412 4.61018 20.0882C4.68561 19.835 4.76693 19.5839 4.85457 19.3349C4.94199 19.0857 5.0353 18.8391 5.13471 18.5947C5.23412 18.3501 5.3392 18.1085 5.45016 17.8694C5.56113 17.6302 5.67798 17.394 5.80028 17.1608C5.92258 16.9273 6.05055 16.6974 6.18397 16.4704C6.31739 16.2435 6.45626 16.0201 6.60058 15.8001C6.74468 15.5802 6.89423 15.3641 7.0488 15.1515C7.20359 14.9391 7.36317 14.7305 7.52776 14.5261C7.69257 14.3215 7.86196 14.1214 8.03637 13.9255C8.21077 13.7293 8.38976 13.5378 8.57332 13.3508C8.75688 13.1637 8.9448 12.9813 9.13708 12.8039C9.32936 12.6261 9.52601 12.4533 9.72657 12.2856C9.92735 12.1176 10.1318 11.955 10.3405 11.7975C10.5489 11.6398 10.7612 11.4876 10.9771 11.3406C11.1929 11.1937 11.412 11.0522 11.6348 10.9163C11.8574 10.7801 12.0832 10.6499 12.3121 10.5251C12.541 10.4005 12.773 10.2816 13.0076 10.1685C13.2424 10.0552 13.4795 9.94818 13.7194 9.84688C13.9592 9.7458 14.2014 9.6505 14.4458 9.56142C14.6901 9.47234 14.9367 9.38948 15.185 9.31262C15.4335 9.23576 15.6836 9.16534 15.9354 9.10091C16.1872 9.03671 16.4405 8.97873 16.6951 8.9272C16.9498 8.87566 17.2053 8.83034 17.4621 8.79147C17.7189 8.75281 17.9766 8.72038 18.2349 8.69439C18.4933 8.6684 18.752 8.64907 19.0112 8.63596C19.2707 8.62308 19.5301 8.61664 19.7897 8.61664C20.0492 8.61664 20.3088 8.62308 20.568 8.63596C20.8272 8.64907 21.086 8.6684 21.3446 8.69439C21.6029 8.72038 21.8604 8.75281 22.1172 8.79147C22.374 8.83034 22.6297 8.87566 22.8843 8.9272C23.139 8.97873 23.3921 9.03671 23.6439 9.10091C23.8957 9.16534 24.1459 9.23576 24.3942 9.31262C24.6428 9.38948 24.8891 9.47234 25.1335 9.56142C25.3779 9.6505 25.6201 9.7458 25.8599 9.84688C26.0997 9.94818 26.3371 10.0552 26.5717 10.1685C26.8065 10.2816 27.0382 10.4005 27.2671 10.5251C27.496 10.6499 27.7219 10.7801 27.9445 10.9163C28.1673 11.0522 28.3866 11.1937 28.6024 11.3406C28.8182 11.4876 29.0304 11.6398 29.239 11.7975C29.4474 11.955 29.6521 12.1176 29.8527 12.2856C30.0533 12.4533 30.2499 12.6261 30.4422 12.8039C30.6347 12.9813 30.8226 13.1637 31.0062 13.3508C31.1897 13.5378 31.3687 13.7293 31.5429 13.9255C31.7173 14.1214 31.8869 14.3215 32.0515 14.5261C32.2161 14.7305 32.3759 14.9391 32.5305 15.1515C32.6852 15.3641 32.8346 15.5802 32.9789 15.8001C33.123 16.0201 33.2619 16.2435 33.3953 16.4704C33.5287 16.6974 33.6567 16.9273 33.779 17.1608C33.9015 17.394 34.0181 17.6302 34.1291 17.8694C34.2401 18.1085 34.3454 18.3501 34.4446 18.5947C34.544 18.8391 34.6375 19.0857 34.7249 19.3349C34.8123 19.5839 34.8936 19.835 34.9691 20.0882C35.0445 20.3412 35.1136 20.596 35.1766 20.8528C35.2398 21.1094 35.2967 21.3673 35.3473 21.6268C35.3979 21.8863 35.4424 22.1468 35.4805 22.4085C35.5185 22.6702 35.5503 22.9326 35.5758 23.1958C35.6011 23.459 35.6203 23.7229 35.6329 23.9871C35.6458 24.2512 35.6521 24.5156 35.6521 24.7801Z" fill="#B03737"/>
    </g>
    <mask id="mask1_15_48" style="mask-type:luminance" maskUnits="userSpaceOnUse" x="7" y="15" width="25" height="20">
        <path d="M7.78523 15.0793H31.7775V34.5863H7.78523V15.0793Z" fill="white"/>
    </mask>
    <g mask="url(#mask1_15_48)">
        <path d="M13.6116 15.9432L15.1047 19.7959H8.61551C8.59087 19.7959 8.56754 19.8003 8.54509 19.8065L13.6268 15.7104C13.5898 15.7797 13.5808 15.8641 13.6116 15.9432ZM30.9648 19.7959H24.596L25.9716 15.9361C25.9993 15.8588 25.9899 15.7777 25.9542 15.7106L31.0353 19.8063C31.0128 19.8003 30.9895 19.7959 30.9648 19.7959ZM31.2016 19.9402L31.2265 19.9602L31.2262 19.9605H31.2269L31.2169 19.9725C31.2125 19.9613 31.2075 19.9507 31.2016 19.9402ZM24.4068 20.3477H30.9141L20.2132 33.5944L24.4068 20.3477ZM15.3057 20.3477L19.4997 33.5962L8.67066 20.3477H15.3057ZM19.6021 15.6435L15.6057 19.5866L14.1149 15.7404C14.0979 15.6962 14.07 15.66 14.0364 15.6315H19.6172L19.6021 15.6435ZM24.0957 19.5841L19.9756 15.6406L19.9638 15.6315H25.5439C25.5088 15.6617 25.4798 15.7004 25.4628 15.7477L24.0957 19.5841ZM23.8382 20.3477L19.8561 32.9257L15.8745 20.3477H23.8382ZM19.7933 16.2231L23.526 19.7959H16.1718L19.7933 16.2231ZM8.35412 19.9605H8.35433L8.35412 19.9602L8.37897 19.9402C8.3733 19.9505 8.36807 19.9609 8.36371 19.972L8.35412 19.9605ZM31.5491 19.5168L26.1916 15.1986C26.0959 15.1215 25.9777 15.0797 25.8559 15.0797H13.7247C13.6028 15.0797 13.4845 15.1215 13.389 15.1986L8.01839 19.5275C7.87254 19.6448 7.79624 19.8303 7.81586 20.0187C7.82763 20.1328 7.87385 20.2384 7.94557 20.3226L19.4421 34.3877C19.5448 34.5136 19.6972 34.5863 19.8579 34.5863H19.8594C20.0207 34.5858 20.1733 34.5121 20.2756 34.3852L31.6385 20.3186C31.7191 20.2224 31.768 20.0971 31.768 19.9605C31.768 19.7787 31.6821 19.6175 31.5491 19.5168Z" fill="#F8F7F2"/>
    </g>
    </g>
    <path d="M55.8831 28.52C56.0431 28.52 56.1231 28.6 56.1231 28.72C56.1231 28.8 56.0831 28.88 56.0431 28.92C54.6031 30.16 50.2031 33.28 47.4431 33.28C45.8831 33.28 44.8831 31.52 44.0431 30C43.8031 29.6 43.6031 29.2 43.3631 28.84C43.0431 28.84 42.7231 28.76 42.4431 28.64C40.7631 30.76 39.4431 32.76 39.0031 33.92C39.0831 33.92 39.1231 34 39.1231 34.16C39.0431 34.52 38.9231 34.92 38.7231 34.96C38.6031 35 38.4831 34.96 38.4031 34.84L38.3631 34.68C38.3631 34.6 38.4031 34.48 38.4431 34.28C38.6031 33.2 40.0831 30.88 42.0031 28.48C41.5631 28.24 41.2831 27.92 41.2831 27.64C41.2831 27.32 41.5231 27.12 41.8431 27.12C42.2031 27.12 42.5231 27.24 42.8031 27.48C44.4831 25.4 46.4031 23.36 48.0831 21.96C48.1231 21.92 48.1631 21.88 48.2031 21.88C48.3231 21.88 48.4431 22 48.4431 22.12C48.4431 22.2 48.4031 22.24 48.3631 22.28C46.7231 23.68 44.8031 25.72 43.1231 27.8C43.2831 27.96 43.4431 28.16 43.6031 28.4H43.7631C49.6431 28.4 54.5631 24.28 54.5631 20.92C54.5631 19.48 53.6431 18.8 51.6431 18.8C47.5631 18.8 42.2031 21.56 39.8831 24.8C39.8431 24.88 39.7631 24.92 39.6831 24.92C39.5631 24.92 39.4831 24.8 39.4831 24.68C39.4831 24.64 39.4831 24.6 39.5231 24.56C41.8831 21.16 47.4431 18.32 51.6431 18.32C53.8831 18.32 55.0031 19.2 55.0031 20.92C55.0031 24.48 49.8831 28.8 43.9231 28.88L44.4431 29.76C45.2831 31.28 46.1631 32.8 47.4431 32.8C50.0431 32.8 54.3231 29.8 55.7631 28.56C55.8031 28.52 55.8431 28.52 55.8831 28.52ZM42.2831 28.08C42.3631 28 42.4431 27.92 42.5231 27.8C42.2831 27.68 42.0831 27.56 41.8431 27.56C41.7631 27.56 41.7231 27.6 41.7231 27.64C41.7231 27.76 41.9631 27.96 42.2831 28.08ZM42.7231 28.24C42.8431 28.28 42.9231 28.32 43.0031 28.32C42.9631 28.24 42.8831 28.2 42.8431 28.12L42.7231 28.24ZM60.3859 32.04C59.4259 32.04 58.9459 31.64 58.9459 30.84C58.9459 30.04 59.4659 29.16 59.9459 28.44C60.0659 28.32 59.9459 28.28 59.8659 28.36C59.6659 28.48 59.3859 28.68 59.0659 28.92C57.3859 30.12 54.9059 31.96 53.7859 31.96C53.3459 31.96 53.0659 31.72 53.0659 31.32C53.0659 29.96 56.6659 27.72 58.0259 27.72C58.6259 27.72 58.9059 27.88 59.1459 28.32C59.9859 27.68 60.4659 27.36 60.6659 27.36C60.8259 27.36 60.9459 27.48 60.9459 27.64C60.9459 27.8 60.7859 28.04 60.5059 28.44C60.0259 29.12 59.3859 30.08 59.3859 30.84C59.3859 31.36 59.7059 31.56 60.3859 31.56C61.6259 31.56 65.1859 30.24 67.4259 28.56C67.4659 28.52 67.5059 28.52 67.5859 28.52C67.7059 28.52 67.7859 28.6 67.7859 28.72C67.7859 28.8 67.7459 28.88 67.7059 28.92C65.4659 30.52 61.7859 32.04 60.3859 32.04ZM53.7859 31.48C54.7459 31.48 57.1059 29.8 58.7459 28.56C58.5859 28.24 58.4659 28.16 58.0259 28.16C56.6659 28.16 53.5059 30.36 53.5059 31.32C53.5059 31.44 53.5859 31.48 53.7859 31.48ZM67.1856 36.32C66.4256 36.32 66.1056 35.92 66.1056 35.28C66.1056 33.92 68.2656 31.8 70.2256 29.84C71.9456 28.16 73.5056 26.6 73.5056 25.84C73.5056 25.56 73.2256 25.28 72.4256 24.72C70.9456 26.28 69.1456 27.88 67.7056 28.92C67.6656 28.96 67.6256 28.96 67.5456 28.96C67.4256 28.96 67.3456 28.88 67.3456 28.72C67.3456 28.68 67.3856 28.6 67.4256 28.56C69.0256 27.4 70.7056 25.88 72.0256 24.48C71.3056 24 70.9056 23.72 70.9056 23.36C70.9056 22.36 73.7056 20.24 74.9456 20.24C75.2256 20.24 75.3856 20.44 75.3856 20.72C75.3856 21.28 74.2656 22.76 72.7456 24.4C73.4256 25.04 73.9856 25.36 73.9856 25.84C73.9856 26.8 72.2656 28.48 70.5456 30.2C68.5856 32.12 66.5456 34.12 66.5456 35.28C66.5456 35.68 66.7056 35.84 67.1856 35.84C69.4656 35.84 76.3056 31.44 80.2656 28.56C80.3056 28.52 80.3456 28.52 80.3856 28.52C80.5456 28.52 80.6256 28.6 80.6256 28.72C80.6256 28.8 80.5856 28.88 80.5456 28.92C76.5456 31.8 69.5856 36.32 67.1856 36.32ZM72.3456 24.16C73.1856 23.28 74.6256 21.6 74.9056 20.92C74.9456 20.8 74.8656 20.72 74.7456 20.76C73.6656 20.96 71.3856 22.68 71.3856 23.36C71.3856 23.44 71.6256 23.68 72.3456 24.16ZM80.8372 32.12C79.6772 32.12 78.9572 31.68 78.9572 30.88C78.9572 29.56 80.9572 27.56 82.2772 27.56C82.7172 27.56 82.9972 27.8 82.9972 28.2C82.9972 28.72 82.0772 29.32 81.3572 29.32C80.9172 29.32 80.5972 29.28 80.3572 29.16C79.8372 29.72 79.4372 30.36 79.4372 30.88C79.4372 31.4 79.9172 31.64 80.8372 31.64C81.9972 31.64 85.7572 30.56 88.5172 28.56C88.5572 28.52 88.5972 28.52 88.6372 28.52C88.7572 28.52 88.8772 28.6 88.8772 28.72C88.8772 28.8 88.8372 28.88 88.7572 28.92C85.9572 31 82.0772 32.12 80.8372 32.12ZM81.3572 28.88C81.7972 28.88 82.5572 28.44 82.5572 28.2C82.5572 28.08 82.4772 28.04 82.2772 28.04C81.7972 28.04 81.2372 28.36 80.7172 28.8C80.8772 28.84 81.0772 28.88 81.3572 28.88Z" fill="black"/>
    <defs>
        <clipPath id="clip0_15_48">
            <rect width="39.5655" height="32.2448" fill="white" transform="translate(0 8.72925)"/>
        </clipPath>
    </defs>
</svg>
