<svg width="16" height="16" viewBox="0 0 16 16" fill="none" xmlns="http://www.w3.org/2000/svg">
    <path d="M7.65375 4.43059H8.50375C8.50375 3.39709 8.86835 2.51029 9.42221 1.86697C10.0035 1.21411 10.7215 0.85 11.4806 0.85C12.2624 0.85 12.9758 1.21696 13.5315 1.85829C14.0953 2.53116 14.4575 3.42323 14.4575 4.43059C14.4575 5.4664 14.0913 6.35487 13.5353 6.99854L7.65375 13.8079L1.77615 7.00311C1.21225 6.33022 0.85 5.43805 0.85 4.43059C0.85 3.3971 1.21459 2.51031 1.76844 1.86699C2.34976 1.21411 3.06773 0.85 3.82688 0.85C4.60862 0.85 5.32208 1.21696 5.8778 1.8583C6.44159 2.53116 6.80375 3.42324 6.80375 4.43059H7.65375Z" fill="#B03737" stroke="#302D2C" stroke-width="1.7"/>
</svg>
