<svg width="84" height="88" viewBox="0 0 84 88" fill="none" xmlns="http://www.w3.org/2000/svg">
    <mask id="mask0_1_140" style="mask-type:luminance" maskUnits="userSpaceOnUse" x="0" y="0" width="84" height="88">
        <path d="M0.266144 0.0916138H83.4051V87.2121H0.266144V0.0916138Z" fill="white"/>
    </mask>
    <g mask="url(#mask0_1_140)">
        <path d="M32.3459 85.6375H41.0462V87.2619H83.4555V42.8277H81.9051V0.0872192H81.2513V34.3926L79.5889 36.1344V53.9442L77.9207 55.6921V68.8093C77.2281 70.1371 76.4493 71.4062 75.5843 72.6166C74.7193 73.827 73.7767 74.9667 72.7551 76.0371C71.7349 77.106 70.6472 78.0936 69.492 78.9999C68.3353 79.9077 67.124 80.7236 65.8581 81.4478H53.3401L51.6719 83.1956H34.678L33.0141 84.9375H0.272034V85.6375H32.3459ZM81.9051 79.5117V43.171H83.1279V86.9187H41.3724V85.6375H81.9051V79.5117ZM81.2513 79.5117V80.8862C81.0028 80.9058 80.757 80.948 80.5157 81.0127C80.2743 81.0774 80.04 81.1647 79.813 81.2731C79.586 81.383 79.3705 81.511 79.165 81.6601C78.9595 81.8106 78.7684 81.9762 78.5931 82.1614C78.4164 82.3465 78.2555 82.5453 78.1132 82.7606C77.971 82.9743 77.8474 83.2017 77.7425 83.438C77.639 83.6759 77.5557 83.9213 77.4925 84.1742C77.4307 84.4271 77.389 84.6846 77.3703 84.945H76.057C76.0786 84.5942 76.1289 84.2495 76.2079 83.9092C76.2884 83.5675 76.3976 83.2378 76.5355 82.9171C76.672 82.5965 76.8358 82.2924 77.0269 82.0033C77.2166 81.7142 77.4307 81.4463 77.6678 81.1979C77.9049 80.9495 78.1606 80.7267 78.4365 80.5264C78.7124 80.3277 79.0026 80.1561 79.3087 80.0116C79.6147 79.8685 79.9294 79.7541 80.2556 79.6698C80.5803 79.5855 80.9108 79.5343 81.2441 79.5117H81.2513ZM80.2412 36.4234L81.2513 35.3651V52.2039L80.2412 53.2622V36.4234ZM80.2412 54.2302L81.2513 53.1704V77.1135C80.9122 77.1271 80.576 77.1647 80.2412 77.2279V54.2302ZM78.573 71.6878V55.9796L79.5889 54.9152V77.377C79.2426 77.4718 78.9035 77.5923 78.573 77.7383V71.6878ZM78.573 78.4865C78.9006 78.3239 79.2397 78.1914 79.5889 78.0891C79.803 78.0213 80.0214 77.9656 80.2412 77.925C80.5746 77.8572 80.9122 77.8151 81.2513 77.803V78.8252C80.8734 78.8463 80.5013 78.9035 80.1349 78.9969C79.767 79.0902 79.4107 79.2167 79.0658 79.3777C78.721 79.5403 78.392 79.733 78.0816 79.9574C77.7698 80.1817 77.4795 80.4346 77.2123 80.7146C76.945 80.9946 76.7051 81.2972 76.491 81.6239C76.2769 81.9491 76.093 82.2939 75.9378 82.6552C75.784 83.0165 75.6633 83.3898 75.5742 83.7753C75.4852 84.1591 75.4306 84.5506 75.409 84.945H74.4262C74.4377 84.5897 74.4779 84.2374 74.5426 83.8867C74.5814 83.6563 74.6345 83.4275 74.6992 83.2032C74.7969 82.8373 74.9233 82.482 75.0785 82.1388C75.182 81.9039 75.2969 81.6766 75.4234 81.4553C76.0441 80.3669 76.8746 79.4982 77.9135 78.8478C78.1247 78.7138 78.3431 78.5934 78.5673 78.485L78.573 78.4865ZM69.5796 81.4553C72.8744 79.0857 75.6518 76.1756 77.9135 72.7235V78.0529C77.2252 78.4413 76.6031 78.9246 76.0513 79.5042C75.4981 80.0823 75.0369 80.7327 74.6676 81.4553H69.5796ZM72.9749 76.281C74.9104 74.2531 76.5571 71.9964 77.9135 69.5063V72.1093C76.7381 73.9625 75.3989 75.6743 73.8974 77.2475C72.3959 78.8207 70.7622 80.2223 68.9934 81.4553H66.509C68.8856 80.0326 71.0409 78.3089 72.9749 76.281ZM53.5973 82.1388H74.3644C74.225 82.4851 74.1101 82.8403 74.0196 83.2032H52.5814L53.5973 82.1388ZM51.9204 83.8867H73.8802C73.8198 84.2374 73.7825 84.5897 73.7695 84.945H50.9161L51.9204 83.8867ZM34.9251 83.8867H51.0037L49.9936 84.945H33.9222L34.9251 83.8867Z" fill="black"/>
    </g>
</svg>
