<svg width="74" height="56" viewBox="0 0 74 56" fill="none" xmlns="http://www.w3.org/2000/svg">
<mask id="mask0_231_129" style="mask-type:luminance" maskUnits="userSpaceOnUse" x="0" y="0" width="74" height="56">
<path d="M0 0H73.4594V55.0945H0V0Z" fill="white"/>
</mask>
<g mask="url(#mask0_231_129)">
<path fill-rule="evenodd" clip-rule="evenodd" d="M0 0V55.0945H73.4594V0H0Z" fill="#3774B0"/>
<mask id="mask1_231_129" style="mask-type:luminance" maskUnits="userSpaceOnUse" x="0" y="0" width="74" height="56">
<path fill-rule="evenodd" clip-rule="evenodd" d="M0 0V55.0945H73.4594V0H0Z" fill="white"/>
</mask>
<g mask="url(#mask1_231_129)">
<mask id="mask2_231_129" style="mask-type:luminance" maskUnits="userSpaceOnUse" x="0" y="0" width="74" height="56">
<path d="M0 0H73.4594V55.0945H0V0Z" fill="white"/>
</mask>
<g mask="url(#mask2_231_129)">
<path d="M-8.17978 51.1584L7.98516 57.9947L73.8259 7.43269L82.3525 -2.72646L65.0666 -5.01141L38.2117 16.7773L16.5962 31.4578L-8.17978 51.1584Z" fill="white"/>
<path d="M-5.96684 55.9482L2.26844 59.9155L79.2906 -3.67035H67.7274L-5.96684 55.9482Z" fill="#B03737"/>
<path d="M81.6388 51.1584L65.4739 57.9947L-0.366868 7.43269L-8.89351 -2.72646L8.39258 -5.01141L35.2474 16.7773L56.8628 31.4578L81.6388 51.1584Z" fill="white"/>
<path d="M81.0874 54.5961L72.8522 58.5633L40.0553 31.3391L30.3316 28.2971L-9.71387 -2.69159H1.84943L41.8725 27.5616L52.5035 31.2091L81.0874 54.5961Z" fill="#B03737"/>
<path fill-rule="evenodd" clip-rule="evenodd" d="M45.4018 -4.59119H28.0574V18.3649H-4.52812V36.7297H28.0574V59.6858H45.4018V36.7297H78.1137V18.3649H45.4018V-4.59119Z" fill="#B03737"/>
<mask id="mask3_231_129" style="mask-type:luminance" maskUnits="userSpaceOnUse" x="-5" y="-5" width="84" height="65">
<path fill-rule="evenodd" clip-rule="evenodd" d="M45.4018 -4.59119H28.0574V18.3649H-4.52812V36.7297H28.0574V59.6858H45.4018V36.7297H78.1137V18.3649H45.4018V-4.59119Z" fill="white"/>
</mask>
<g mask="url(#mask3_231_129)">
<path d="M28.0574 -4.59116V-9.18237H23.4662V-4.59116H28.0574ZM45.4018 -4.59116H49.993V-9.18237H45.4018V-4.59116ZM28.0574 18.3649V22.9561H32.6486V18.3649H28.0574ZM-4.52813 18.3649V13.7737H-9.11934V18.3649H-4.52813ZM-4.52813 36.7297H-9.11934V41.3209H-4.52813V36.7297ZM28.0574 36.7297H32.6486V32.1385H28.0574V36.7297ZM28.0574 59.6858H23.4662V64.277H28.0574V59.6858ZM45.4018 59.6858V64.277H49.993V59.6858H45.4018ZM45.4018 36.7297V32.1385H40.8106V36.7297H45.4018ZM78.1137 36.7297V41.3209H82.7049V36.7297H78.1137ZM78.1137 18.3649H82.7049V13.7737H78.1137V18.3649ZM45.4018 18.3649H40.8106V22.9561H45.4018V18.3649ZM28.0574 4.673e-05H45.4018V-9.18237H28.0574V4.673e-05ZM32.6486 18.3649V-4.59116H23.4662V18.3649H32.6486ZM-4.52813 22.9561H28.0574V13.7737H-4.52813V22.9561ZM0.0630709 36.7297V18.3649H-9.11934V36.7297H0.0630709ZM28.0574 32.1385H-4.52813V41.3209H28.0574V32.1385ZM32.6486 59.6858V36.7297H23.4662V59.6858H32.6486ZM45.4018 55.0946H28.0574V64.277H45.4018V55.0946ZM40.8106 36.7297V59.6858H49.993V36.7297H40.8106ZM78.1137 32.1385H45.4018V41.3209H78.1137V32.1385ZM73.5225 18.3649V36.7297H82.7049V18.3649H73.5225ZM45.4018 22.9561H78.1137V13.7737H45.4018V22.9561ZM40.8106 -4.59116V18.3649H49.993V-4.59116H40.8106Z" fill="white"/>
</g>
</g>
</g>
</g>
</svg>
