<svg width="27" height="30" viewBox="0 0 27 30" fill="none" xmlns="http://www.w3.org/2000/svg">
<path d="M19.0983 18.4533L18.8666 18.7813L19.1369 19.0783L26.2534 26.8983C26.4077 27.0753 26.4995 27.3204 26.4974 27.5829C26.4953 27.8468 26.3986 28.0909 26.2405 28.2646C26.0838 28.4369 25.8822 28.5246 25.6825 28.5265C25.484 28.5284 25.2827 28.4455 25.1242 28.2787L18.0077 20.4588L17.6818 20.1006L17.3134 20.4149C15.8233 21.6861 14.0439 22.4681 12.1786 22.6788C10.3135 22.8894 8.42995 22.5212 6.74078 21.6122C5.05097 20.7029 3.62054 19.2871 2.6174 17.5197C1.61412 15.7521 1.08048 13.7068 1.08069 11.6168C1.08092 9.83971 1.46722 8.09001 2.20557 6.51361C2.94388 4.93731 4.01171 3.58209 5.31669 2.55772C6.62138 1.53358 8.12579 0.869272 9.70422 0.615793C11.2825 0.362345 12.8934 0.526211 14.4045 1.09509C15.916 1.66409 17.2868 2.62306 18.4008 3.89678C19.515 5.1707 20.3394 6.72201 20.802 8.42317C21.2646 10.1244 21.3512 11.9233 21.0541 13.6695C20.757 15.4157 20.0855 17.0555 19.0983 18.4533ZM11.1539 2.40294C8.90211 2.40294 6.75329 3.3863 5.1768 5.11863C3.60175 6.84939 2.72399 9.18751 2.72399 11.6168C2.72399 14.046 3.60175 16.3841 5.1768 18.1149C6.75329 19.8472 8.90211 20.8306 11.1539 20.8306C13.4057 20.8306 15.5545 19.8472 17.131 18.1149C18.706 16.3841 19.5838 14.046 19.5838 11.6168C19.5838 9.18751 18.706 6.84939 17.131 5.11863C15.5545 3.3863 13.4057 2.40294 11.1539 2.40294Z" fill="#302D2C" stroke="#302D2C"/>
</svg>
