<svg width="26" height="21" viewBox="0 0 26 21" fill="none" xmlns="http://www.w3.org/2000/svg">
    <g clip-path="url(#clip0_20_234)">
    <mask id="mask0_20_234" style="mask-type:luminance" maskUnits="userSpaceOnUse" x="2" y="0" width="22" height="21">
        <path d="M2.58069 0H23.4283V20.963H2.58069V0Z" fill="white"/>
    </mask>
    <g mask="url(#mask0_20_234)">
        <path d="M23.4283 10.4534C23.4283 10.6257 23.4242 10.7979 23.4157 10.9699C23.4074 11.1421 23.3948 11.3138 23.3782 11.4852C23.3614 11.6567 23.3405 11.8277 23.3156 11.998C23.2905 12.1684 23.2613 12.3381 23.2281 12.5071C23.1948 12.6761 23.1574 12.8442 23.1159 13.0113C23.0745 13.1784 23.0291 13.3443 22.9795 13.5092C22.9299 13.674 22.8765 13.8375 22.819 13.9998C22.7616 14.162 22.7001 14.3228 22.6348 14.4819C22.5696 14.641 22.5004 14.7985 22.4275 14.9543C22.3546 15.1099 22.278 15.2637 22.1974 15.4158C22.1171 15.5677 22.033 15.7176 21.9453 15.8653C21.8576 16.013 21.7664 16.1586 21.6717 16.3018C21.5768 16.445 21.4787 16.5859 21.377 16.7242C21.2754 16.8625 21.1704 16.9984 21.0622 17.1315C20.9541 17.2647 20.8426 17.3951 20.728 17.5228C20.6136 17.6505 20.4959 17.7752 20.3753 17.897C20.2547 18.0188 20.1312 18.1376 20.0047 18.2533C19.8783 18.3689 19.7491 18.4815 19.6173 18.5907C19.4855 18.7001 19.351 18.806 19.214 18.9087C19.0769 19.0113 18.9376 19.1104 18.7957 19.2062C18.6539 19.3019 18.5098 19.3939 18.3634 19.4826C18.2171 19.5712 18.0687 19.6561 17.9183 19.7373C17.7678 19.8184 17.6156 19.8958 17.4613 19.9696C17.3071 20.0432 17.1511 20.113 16.9935 20.179C16.8359 20.2449 16.6768 20.3068 16.5162 20.3649C16.3556 20.4229 16.1937 20.477 16.0304 20.5269C15.8672 20.577 15.7027 20.623 15.5373 20.6648C15.3718 20.7066 15.2055 20.7443 15.0382 20.7779C14.8708 20.8116 14.7028 20.841 14.534 20.8663C14.3653 20.8916 14.1961 20.9126 14.0263 20.9295C13.8564 20.9465 13.6864 20.959 13.516 20.9676C13.3457 20.976 13.1751 20.9802 13.0046 20.9802C12.834 20.9802 12.6635 20.976 12.493 20.9676C12.3227 20.959 12.1526 20.9465 11.9829 20.9295C11.8131 20.9126 11.6438 20.8916 11.475 20.8663C11.3062 20.841 11.1383 20.8116 10.971 20.7779C10.8037 20.7443 10.6372 20.7066 10.4717 20.6648C10.3063 20.623 10.142 20.577 9.97864 20.5269C9.81547 20.477 9.65344 20.4229 9.49285 20.3649C9.33225 20.3068 9.17309 20.2449 9.0155 20.179C8.85792 20.113 8.70205 20.0432 8.54776 19.9696C8.39361 19.8958 8.24118 19.8184 8.09076 19.7373C7.94034 19.6561 7.79192 19.5712 7.64565 19.4826C7.49924 19.3939 7.35526 19.3019 7.21343 19.2062C7.07161 19.1104 6.93207 19.0113 6.79511 18.9087C6.65801 18.806 6.52364 18.7001 6.39169 18.5907C6.25989 18.4815 6.13067 18.3689 6.00432 18.2533C5.87796 18.1376 5.75447 18.0188 5.63385 17.897C5.51322 17.7752 5.39561 17.6505 5.281 17.5228C5.16639 17.3951 5.05508 17.2647 4.94677 17.1315C4.83861 16.9984 4.73374 16.8625 4.63203 16.7242C4.53046 16.5859 4.43218 16.445 4.33749 16.3018C4.24265 16.1586 4.15139 16.013 4.06372 15.8653C3.97604 15.7176 3.89195 15.5677 3.81158 15.4158C3.73121 15.2637 3.65442 15.1099 3.5815 14.9543C3.50858 14.7985 3.43953 14.641 3.37421 14.4819C3.30888 14.3228 3.24756 14.162 3.19012 13.9998C3.13253 13.8375 3.07909 13.674 3.02952 13.5092C2.9801 13.3443 2.93454 13.1784 2.89314 13.0113C2.85174 12.8442 2.81435 12.6761 2.78097 12.5071C2.74773 12.3381 2.71865 12.1684 2.69358 11.998C2.66851 11.8277 2.64759 11.6567 2.63097 11.4852C2.61421 11.3138 2.6016 11.1421 2.5933 10.9699C2.58499 10.7979 2.58069 10.6257 2.58069 10.4534C2.58069 10.2811 2.58499 10.1089 2.5933 9.93691C2.6016 9.76489 2.61421 9.59301 2.63097 9.42157C2.64759 9.25013 2.66851 9.07927 2.69358 8.90884C2.71865 8.73841 2.74773 8.56871 2.78097 8.39973C2.81435 8.23075 2.85174 8.06278 2.89314 7.89568C2.93454 7.72843 2.9801 7.56249 3.02952 7.3977C3.07909 7.23277 3.13253 7.06929 3.19012 6.90711C3.24756 6.74478 3.30888 6.58419 3.37421 6.42505C3.43953 6.26576 3.50858 6.10835 3.5815 5.95268C3.65442 5.79686 3.73121 5.64307 3.81158 5.49116C3.89195 5.33911 3.97604 5.18937 4.06372 5.04151C4.15139 4.8938 4.24265 4.74825 4.33749 4.60502C4.43218 4.46179 4.53046 4.32102 4.63203 4.18257C4.73374 4.04426 4.83861 3.90841 4.94677 3.77531C5.05508 3.64206 5.16639 3.51171 5.281 3.3841C5.39561 3.25635 5.51322 3.13164 5.63385 3.00982C5.75447 2.88801 5.87796 2.76923 6.00432 2.65363C6.13067 2.53789 6.25989 2.42533 6.39169 2.3161C6.52364 2.20673 6.65801 2.10083 6.79511 1.99825C6.93207 1.89553 7.07161 1.79643 7.21343 1.70065C7.35526 1.60502 7.49924 1.51286 7.64565 1.42432C7.79192 1.33563 7.94034 1.25085 8.09076 1.16955C8.24118 1.08838 8.39361 1.01098 8.54776 0.937342C8.70205 0.863557 8.85792 0.793823 9.0155 0.727851C9.17309 0.662024 9.33225 0.599958 9.49285 0.541943C9.65344 0.483927 9.81547 0.429963 9.97864 0.379905C10.142 0.329848 10.3063 0.283985 10.4717 0.242029C10.6372 0.200218 10.8037 0.162458 10.971 0.128893C11.1383 0.0953279 11.3062 0.065814 11.475 0.0404957C11.6438 0.0153221 11.8131 -0.00580058 11.9829 -0.0227277C12.1526 -0.0396547 12.3227 -0.0522416 12.493 -0.0607774C12.6635 -0.0691687 12.834 -0.0733643 13.0046 -0.0733643C13.1751 -0.0733643 13.3457 -0.0691687 13.516 -0.0607774C13.6864 -0.0522416 13.8564 -0.0396547 14.0263 -0.0227277C14.1961 -0.00580058 14.3653 0.0153221 14.534 0.0404957C14.7028 0.065814 14.8708 0.0953279 15.0382 0.128893C15.2055 0.162458 15.3718 0.200218 15.5373 0.242029C15.7027 0.283985 15.8672 0.329848 16.0304 0.379905C16.1937 0.429963 16.3556 0.483927 16.5162 0.541943C16.6768 0.599958 16.8359 0.662024 16.9935 0.727851C17.1511 0.793823 17.3071 0.863557 17.4613 0.937342C17.6156 1.01098 17.7678 1.08838 17.9183 1.16955C18.0687 1.25085 18.2171 1.33563 18.3634 1.42432C18.5098 1.51286 18.6539 1.60502 18.7957 1.70065C18.9376 1.79643 19.0769 1.89553 19.214 1.99825C19.351 2.10083 19.4855 2.20673 19.6173 2.3161C19.7491 2.42533 19.8783 2.53789 20.0047 2.65363C20.1312 2.76923 20.2547 2.88801 20.3753 3.00982C20.4959 3.13164 20.6136 3.25635 20.728 3.3841C20.8426 3.51171 20.9541 3.64206 21.0622 3.77531C21.1704 3.90841 21.2754 4.04426 21.377 4.18257C21.4787 4.32102 21.5768 4.46179 21.6717 4.60502C21.7664 4.74825 21.8576 4.8938 21.9453 5.04151C22.033 5.18937 22.1171 5.33911 22.1974 5.49116C22.278 5.64307 22.3546 5.79686 22.4275 5.95268C22.5004 6.10835 22.5696 6.26576 22.6348 6.42505C22.7001 6.58419 22.7616 6.74478 22.819 6.90711C22.8765 7.06929 22.9299 7.23277 22.9795 7.3977C23.0291 7.56249 23.0745 7.72843 23.1159 7.89568C23.1574 8.06278 23.1948 8.23075 23.2281 8.39973C23.2613 8.56871 23.2905 8.73841 23.3156 8.90884C23.3405 9.07927 23.3614 9.25013 23.3782 9.42157C23.3948 9.59301 23.4074 9.76489 23.4157 9.93691C23.4242 10.1089 23.4283 10.2811 23.4283 10.4534Z" fill="#B03737"/>
    </g>
        <path d="M11.2432 9.2287H11.6047L11.718 8.88542L12.9688 5.09619L14.2195 8.88542L14.3328 9.2287H14.6943H18.4563L15.2428 11.8249L14.9739 12.0422L15.0822 12.3706L16.2752 15.985L13.283 13.5675L12.9688 13.3136L12.6545 13.5675L9.66226 15.985L10.8553 12.3706L10.9637 12.0422L10.6947 11.8249L7.48117 9.2287H11.2432Z" stroke="#F8F7F2"/>
    </g>
    <defs>
        <clipPath id="clip0_20_234">
            <rect width="26" height="21" fill="white"/>
        </clipPath>
    </defs>
</svg>
