<svg width="165" height="47" viewBox="0 0 165 47" fill="none" xmlns="http://www.w3.org/2000/svg">
    <g clip-path="url(#clip0_15_38)">
        <mask id="mask0_15_38" style="mask-type:luminance" maskUnits="userSpaceOnUse" x="3" y="7" width="33" height="33">
            <path d="M3.92717 7.59204H35.6521V39.7577H3.92717V7.59204Z" fill="white"/>
        </mask>
    <g mask="url(#mask0_15_38)">
    <path d="M35.6521 23.6318C35.6521 23.8962 35.6458 24.1604 35.6329 24.4243C35.6203 24.6885 35.6011 24.952 35.5758 25.2151C35.5503 25.4781 35.5185 25.7405 35.4805 26.0018C35.4424 26.2633 35.3979 26.5237 35.3473 26.783C35.2967 27.0423 35.2398 27.3002 35.1766 27.5566C35.1136 27.813 35.0445 28.0677 34.9691 28.3207C34.8936 28.5736 34.8123 28.8244 34.7249 29.0735C34.6375 29.3223 34.544 29.569 34.4446 29.8132C34.3454 30.0574 34.2401 30.2989 34.1291 30.538C34.0181 30.7768 33.9015 31.0128 33.779 31.2461C33.6567 31.4792 33.5287 31.7092 33.3953 31.9359C33.2619 32.1625 33.123 32.3858 32.9789 32.6056C32.8346 32.8254 32.6852 33.0416 32.5305 33.2538C32.3759 33.466 32.2161 33.6745 32.0515 33.8787C31.8869 34.0832 31.7173 34.2832 31.5429 34.4792C31.3687 34.675 31.1897 34.8664 31.0062 35.0533C30.8226 35.2402 30.6347 35.4225 30.4422 35.6C30.2499 35.7774 30.0533 35.9501 29.8527 36.1177C29.6521 36.2856 29.4474 36.4481 29.239 36.6057C29.0304 36.7631 28.8182 36.9151 28.6024 37.0621C28.3866 37.209 28.1673 37.3502 27.9445 37.4863C27.7219 37.6222 27.496 37.7525 27.2671 37.877C27.0382 38.0016 26.8065 38.1203 26.5717 38.2335C26.3371 38.3465 26.0997 38.4535 25.8599 38.5548C25.6201 38.656 25.3779 38.751 25.1335 38.84C24.8891 38.929 24.6428 39.0121 24.3942 39.0886C24.1459 39.1655 23.8957 39.236 23.6439 39.3002C23.3921 39.3644 23.139 39.4223 22.8843 39.4738C22.6297 39.5255 22.374 39.5706 22.1172 39.6094C21.8604 39.6483 21.6029 39.6805 21.3446 39.7064C21.086 39.7324 20.8272 39.7517 20.568 39.7648C20.3088 39.7777 20.0492 39.7841 19.7897 39.7841C19.5301 39.7841 19.2707 39.7777 19.0112 39.7648C18.752 39.7517 18.4933 39.7324 18.2349 39.7064C17.9766 39.6805 17.7189 39.6483 17.4621 39.6094C17.2053 39.5706 16.9498 39.5255 16.6951 39.4738C16.4405 39.4223 16.1872 39.3644 15.9354 39.3002C15.6836 39.236 15.4335 39.1655 15.185 39.0886C14.9367 39.0121 14.6901 38.929 14.4458 38.84C14.2014 38.751 13.9592 38.656 13.7194 38.5548C13.4796 38.4535 13.2424 38.3465 13.0076 38.2335C12.773 38.1203 12.541 38.0016 12.3121 37.877C12.0832 37.7525 11.8574 37.6222 11.6348 37.4863C11.412 37.3502 11.1929 37.209 10.9771 37.0621C10.7612 36.9151 10.5489 36.7631 10.3405 36.6057C10.1318 36.4481 9.92736 36.2856 9.72657 36.1177C9.52601 35.9501 9.32937 35.7774 9.13708 35.6C8.9448 35.4225 8.75688 35.2402 8.57332 35.0533C8.38976 34.8664 8.21078 34.675 8.03637 34.4792C7.86197 34.2832 7.69258 34.0832 7.52776 33.8787C7.36317 33.6745 7.20359 33.466 7.0488 33.2538C6.89424 33.0416 6.74468 32.8254 6.60058 32.6056C6.45626 32.3858 6.31739 32.1625 6.18397 31.9359C6.05055 31.7092 5.92258 31.4792 5.80028 31.2461C5.67798 31.0128 5.56113 30.7768 5.45016 30.538C5.3392 30.2989 5.23412 30.0574 5.13471 29.8132C5.0353 29.569 4.94199 29.3223 4.85457 29.0735C4.76693 28.8244 4.68562 28.5736 4.61019 28.3207C4.53497 28.0677 4.46565 27.813 4.40264 27.5566C4.33964 27.3002 4.28274 27.0423 4.23194 26.783C4.18137 26.5237 4.13711 26.2633 4.09896 26.0018C4.06081 25.7405 4.02898 25.4781 4.00369 25.2151C3.97819 24.952 3.959 24.6885 3.94636 24.4243C3.93371 24.1604 3.92717 23.8962 3.92717 23.6318C3.92717 23.3674 3.93371 23.1033 3.94636 22.8393C3.959 22.5754 3.97819 22.3116 4.00369 22.0486C4.02898 21.7855 4.06081 21.5233 4.09896 21.2618C4.13711 21.0003 4.18137 20.7399 4.23194 20.4806C4.28274 20.2214 4.33964 19.9636 4.40264 19.7072C4.46565 19.4506 4.53497 19.196 4.61019 18.9431C4.68562 18.6901 4.76693 18.4392 4.85457 18.1904C4.94199 17.9413 5.0353 17.6949 5.13471 17.4507C5.23412 17.2063 5.3392 16.9647 5.45016 16.7259C5.56113 16.4868 5.67798 16.2508 5.80028 16.0177C5.92258 15.7844 6.05055 15.5547 6.18397 15.3278C6.31739 15.1011 6.45626 14.8778 6.60058 14.658C6.74468 14.4383 6.89424 14.2223 7.0488 14.0098C7.20359 13.7976 7.36317 13.5891 7.52776 13.3849C7.69258 13.1805 7.86197 12.9804 8.03637 12.7846C8.21078 12.5886 8.38976 12.3973 8.57332 12.2104C8.75688 12.0234 8.9448 11.8412 9.13708 11.6638C9.32937 11.4862 9.52601 11.3135 9.72657 11.1459C9.92736 10.9781 10.1318 10.8156 10.3405 10.6582C10.5489 10.5006 10.7612 10.3485 10.9771 10.2016C11.1929 10.0548 11.412 9.91341 11.6348 9.77755C11.8574 9.64147 12.0832 9.51138 12.3121 9.38662C12.541 9.26208 12.773 9.14332 13.0076 9.03032C13.2424 8.91711 13.4796 8.81011 13.7194 8.70888C13.9592 8.60788 14.2014 8.51264 14.4458 8.42362C14.6901 8.3346 14.9367 8.2518 15.185 8.17499C15.4335 8.09818 15.6836 8.02781 15.9354 7.96343C16.1872 7.89928 16.4405 7.84134 16.6951 7.78984C16.9498 7.73833 17.2053 7.69305 17.4621 7.6542C17.7189 7.61557 17.9766 7.58316 18.2349 7.55719C18.4933 7.53122 18.752 7.5119 19.0112 7.49881C19.2707 7.48593 19.5301 7.47949 19.7897 7.47949C20.0492 7.47949 20.3088 7.48593 20.568 7.49881C20.8272 7.5119 21.086 7.53122 21.3446 7.55719C21.6029 7.58316 21.8604 7.61557 22.1172 7.6542C22.374 7.69305 22.6297 7.73833 22.8843 7.78984C23.139 7.84134 23.3921 7.89928 23.6439 7.96343C23.8957 8.02781 24.1459 8.09818 24.3942 8.17499C24.6428 8.2518 24.8891 8.3346 25.1335 8.42362C25.3779 8.51264 25.6201 8.60788 25.8599 8.70888C26.0997 8.81011 26.3371 8.91711 26.5717 9.03032C26.8065 9.14332 27.0382 9.26208 27.2671 9.38662C27.496 9.51138 27.7219 9.64147 27.9445 9.77755C28.1673 9.91341 28.3866 10.0548 28.6024 10.2016C28.8182 10.3485 29.0304 10.5006 29.239 10.6582C29.4474 10.8156 29.6521 10.9781 29.8527 11.1459C30.0533 11.3135 30.2499 11.4862 30.4422 11.6638C30.6347 11.8412 30.8226 12.0234 31.0062 12.2104C31.1897 12.3973 31.3687 12.5886 31.5429 12.7846C31.7173 12.9804 31.8869 13.1805 32.0515 13.3849C32.2161 13.5891 32.3759 13.7976 32.5305 14.0098C32.6852 14.2223 32.8346 14.4383 32.9789 14.658C33.123 14.8778 33.2619 15.1011 33.3953 15.3278C33.5287 15.5547 33.6567 15.7844 33.779 16.0177C33.9015 16.2508 34.0181 16.4868 34.1291 16.7259C34.2401 16.9647 34.3454 17.2063 34.4446 17.4507C34.544 17.6949 34.6375 17.9413 34.7249 18.1904C34.8123 18.4392 34.8936 18.6901 34.9691 18.9431C35.0445 19.196 35.1136 19.4506 35.1766 19.7072C35.2398 19.9636 35.2967 20.2214 35.3473 20.4806C35.3979 20.7399 35.4424 21.0003 35.4805 21.2618C35.5185 21.5233 35.5503 21.7855 35.5758 22.0486C35.6011 22.3116 35.6203 22.5754 35.6329 22.8393C35.6458 23.1033 35.6521 23.3674 35.6521 23.6318Z" fill="#B03737"/>
    </g>
    <path d="M17.1094 21.4853H17.4718L17.5846 21.1409L19.7352 14.571L21.8858 21.1409L21.9986 21.4853H22.361H28.833L23.3581 25.9453L23.0919 26.1622L23.1987 26.4885L25.2945 32.8905L20.051 28.6191L19.7352 28.3619L19.4194 28.6191L14.176 32.8905L16.2717 26.4885L16.3785 26.1622L16.1123 25.9453L10.6374 21.4853H17.1094Z" stroke="#F8F7F2"/>
    </g>
    <path d="M42.4848 33.4C40.9648 33.4 39.9248 32.32 39.9648 30.68C40.0048 28.8 41.3648 26.6 43.0048 24.92C43.7248 21.72 46.9648 19.4 49.6448 19.4C51.2848 19.4 52.2848 20.48 52.2448 22.2C52.2048 24.6 50.6048 27.56 48.5248 29.84C51.0048 29.84 53.0048 29.36 54.9648 28.28H55.0848C55.2048 28.28 55.2848 28.36 55.2848 28.52C55.2848 28.6 55.2448 28.68 55.1648 28.72C52.9648 29.92 50.6448 30.4 48.1248 30.28C46.3248 32.12 44.2448 33.4 42.4848 33.4ZM47.9648 29.8C50.0448 27.56 51.7248 24.6 51.7648 22.2C51.8048 20.76 51.0048 19.88 49.6448 19.88C47.2848 19.88 44.5648 21.68 43.6448 24.32C44.8448 23.28 46.0848 22.52 47.1248 22.36H47.1648C47.2848 22.36 47.4048 22.44 47.4048 22.56C47.4048 22.68 47.2848 22.8 47.2048 22.8C46.0848 23 44.6848 23.88 43.4448 25.08C43.4048 25.44 43.3648 25.8 43.3648 26.16C43.3648 28.2 45.0848 29.56 47.9648 29.8ZM42.4848 32.92C44.0048 32.92 45.8848 31.84 47.5248 30.24C43.8448 29.8 42.8848 27.56 42.8848 26.16C42.8848 26 42.8848 25.84 42.9248 25.64C41.5248 27.16 40.4448 29.08 40.4048 30.68C40.4048 32.04 41.2048 32.92 42.4848 32.92ZM45.7805 47C45.4205 47 45.1805 46.8 45.1805 46.4C45.1805 45.08 50.0605 38.6 55.8205 31.64C55.9405 31.24 56.0605 30.92 56.1005 30.64C56.1005 30.52 56.1805 30.44 56.3405 30.44C56.4605 30.44 56.6205 30.44 56.7805 30.48C58.1805 28.8 59.5805 27.16 60.9805 25.52C57.3805 27.84 53.6605 29.68 50.8205 30.24C50.7805 30.24 50.7005 30.24 50.6605 30.28L49.3005 31.96C48.1005 35.64 43.7405 42.92 42.1805 42.92C41.7805 42.92 41.5405 42.68 41.5405 42.32C41.5405 41.32 44.7805 36.84 48.9005 31.76C49.0205 31.36 49.1005 31 49.1405 30.68C49.1405 30.52 49.2205 30.48 49.3405 30.44C49.6205 30.4 49.8605 30.24 50.1005 30.08L50.4205 29.88C50.7405 29.48 51.0605 29.12 51.3805 28.72C51.3405 28.68 51.3805 28.6 51.4605 28.52C51.5405 28.52 51.5805 28.48 51.6205 28.44C57.5405 21.32 64.1405 14.2 65.4605 14.2C65.7805 14.2 65.9805 14.4 65.9805 14.68C65.9805 16.56 55.7805 26.08 51.9005 28.8L51.1405 29.68C54.2605 28.96 58.2605 26.84 62.0605 24.28C67.9005 17.64 73.2605 12.08 74.3805 12.08C74.7005 12.08 74.9005 12.28 74.9005 12.56C74.9005 14.52 68.9405 20.16 62.4205 24.6C60.7405 26.48 59.0205 28.48 57.3805 30.48H57.4605C60.5005 30.48 63.1805 29.84 65.8205 28.52H65.9405C66.0605 28.52 66.1805 28.6 66.1805 28.72C66.1805 28.8 66.1405 28.88 66.0605 28.96C63.0605 30.4 60.2605 30.92 57.4605 30.92H56.9805C56.7405 31.24 56.5005 31.52 56.2605 31.8C54.6605 36.16 47.4205 47 45.7805 47ZM63.6205 23.24C69.4605 19.08 74.4605 14.24 74.4605 12.56C74.4605 12.52 74.4605 12.52 74.3805 12.52C73.5005 12.52 68.9005 17.28 63.6205 23.24ZM53.2605 27.16C57.7405 23.56 65.5405 16.16 65.5405 14.68C65.5405 14.64 65.5005 14.64 65.4605 14.64C64.4205 14.64 58.7805 20.72 53.2605 27.16ZM49.5805 30.92L49.6205 30.84C49.6205 30.84 49.5805 30.84 49.5805 30.88V30.92ZM42.1805 42.44C43.3005 42.44 46.8605 36.84 48.4205 33.04C44.7805 37.6 42.0205 41.4 42.0205 42.32C42.0205 42.4 42.0605 42.44 42.1805 42.44ZM45.7805 46.56C47.0205 46.56 52.8605 37.84 55.1805 33.12C49.9005 39.52 45.6605 45.2 45.6605 46.4C45.6605 46.52 45.6605 46.56 45.7805 46.56ZM65.5942 36.32C64.8342 36.32 64.5142 35.92 64.5142 35.28C64.5142 33.92 66.6742 31.8 68.6342 29.84C70.3542 28.16 71.9142 26.6 71.9142 25.84C71.9142 25.56 71.6342 25.28 70.8342 24.72C69.3542 26.28 67.5542 27.88 66.1142 28.92C66.0742 28.96 66.0342 28.96 65.9542 28.96C65.8342 28.96 65.7542 28.88 65.7542 28.72C65.7542 28.68 65.7942 28.6 65.8342 28.56C67.4342 27.4 69.1142 25.88 70.4342 24.48C69.7142 24 69.3142 23.72 69.3142 23.36C69.3142 22.36 72.1142 20.24 73.3542 20.24C73.6342 20.24 73.7942 20.44 73.7942 20.72C73.7942 21.28 72.6742 22.76 71.1542 24.4C71.8342 25.04 72.3942 25.36 72.3942 25.84C72.3942 26.8 70.6742 28.48 68.9542 30.2C66.9942 32.12 64.9542 34.12 64.9542 35.28C64.9542 35.68 65.1142 35.84 65.5942 35.84C67.8742 35.84 74.7142 31.44 78.6742 28.56C78.7142 28.52 78.7542 28.52 78.7942 28.52C78.9542 28.52 79.0342 28.6 79.0342 28.72C79.0342 28.8 78.9942 28.88 78.9542 28.92C74.9542 31.8 67.9942 36.32 65.5942 36.32ZM70.7542 24.16C71.5942 23.28 73.0342 21.6 73.3142 20.92C73.3542 20.8 73.2742 20.72 73.1542 20.76C72.0742 20.96 69.7942 22.68 69.7942 23.36C69.7942 23.44 70.0342 23.68 70.7542 24.16ZM79.2458 32.12C78.0858 32.12 77.3658 31.68 77.3658 30.88C77.3658 29.56 79.3658 27.56 80.6858 27.56C81.1258 27.56 81.4058 27.8 81.4058 28.2C81.4058 28.72 80.4858 29.32 79.7658 29.32C79.3258 29.32 79.0058 29.28 78.7658 29.16C78.2458 29.72 77.8458 30.36 77.8458 30.88C77.8458 31.4 78.3258 31.64 79.2458 31.64C80.4058 31.64 84.1658 30.56 86.9258 28.56C86.9658 28.52 87.0058 28.52 87.0458 28.52C87.1658 28.52 87.2858 28.6 87.2858 28.72C87.2858 28.8 87.2458 28.88 87.1658 28.92C84.3658 31 80.4858 32.12 79.2458 32.12ZM79.7658 28.88C80.2058 28.88 80.9658 28.44 80.9658 28.2C80.9658 28.08 80.8858 28.04 80.6858 28.04C80.2058 28.04 79.6458 28.36 79.1258 28.8C79.2858 28.84 79.4858 28.88 79.7658 28.88ZM92.597 35.72C92.197 35.72 91.917 35.48 91.917 35.04C91.917 33.56 94.997 29.32 95.917 28.32C95.957 28.28 96.037 28.24 96.077 28.24C96.197 28.24 96.317 28.36 96.317 28.48L96.277 28.64C95.357 29.64 92.397 33.72 92.397 35.04C92.397 35.2 92.517 35.28 92.597 35.28C93.477 35.28 96.237 32.52 97.997 30.24C97.877 30.04 97.837 29.76 97.837 29.48C97.837 28.4 98.717 27.12 99.517 27.12C99.837 27.12 100.037 27.32 100.037 27.6C100.037 28.12 99.437 29.12 98.597 30.28C98.837 30.48 99.197 30.64 99.717 30.64C101.677 30.64 104.037 29.44 105.437 28.52H105.557C105.677 28.52 105.797 28.6 105.797 28.72C105.797 28.8 105.757 28.88 105.677 28.92C104.277 29.84 101.797 31.08 99.717 31.08C99.117 31.08 98.637 30.92 98.317 30.64C96.477 33 93.677 35.72 92.597 35.72ZM98.317 29.84C99.077 28.84 99.557 28 99.557 27.64C99.557 27.6 99.557 27.6 99.477 27.6C98.997 27.6 98.277 28.68 98.277 29.48C98.277 29.6 98.317 29.72 98.317 29.84ZM106.004 32.12C104.844 32.12 104.124 31.68 104.124 30.88C104.124 29.56 106.124 27.56 107.444 27.56C107.884 27.56 108.164 27.8 108.164 28.2C108.164 28.72 107.244 29.32 106.524 29.32C106.084 29.32 105.764 29.28 105.524 29.16C105.004 29.72 104.604 30.36 104.604 30.88C104.604 31.4 105.084 31.64 106.004 31.64C107.164 31.64 110.924 30.56 113.684 28.56C113.724 28.52 113.764 28.52 113.804 28.52C113.924 28.52 114.044 28.6 114.044 28.72C114.044 28.8 114.004 28.88 113.924 28.92C111.124 31 107.244 32.12 106.004 32.12ZM106.524 28.88C106.964 28.88 107.724 28.44 107.724 28.2C107.724 28.08 107.644 28.04 107.444 28.04C106.964 28.04 106.404 28.36 105.884 28.8C106.044 28.84 106.244 28.88 106.524 28.88ZM116.927 32.04C116.007 32.04 115.487 31.64 115.487 30.84C115.487 30.48 115.807 29.8 116.367 28.88C116.487 28.72 116.407 28.64 116.247 28.76C114.167 30.68 112.687 31.96 112.007 31.96C111.727 31.96 111.487 31.76 111.487 31.4C111.487 29.92 114.287 27.56 116.087 27.56C116.327 27.56 116.567 27.6 116.727 27.72C117.087 27.36 117.447 27.04 117.847 26.68C121.967 20.88 130.207 11.48 131.647 11.48C132.007 11.48 132.207 11.68 132.207 12C132.207 13.04 124.007 21.6 118.047 27.12L117.287 28.24C117.367 28.4 117.407 28.6 117.407 28.84C117.367 28.96 117.287 29.04 117.167 29.04C117.047 29.04 116.927 28.92 116.927 28.8C116.927 28.76 116.927 28.76 116.927 28.76C116.327 29.76 115.927 30.48 115.927 30.84C115.927 31.36 116.247 31.56 116.927 31.56C118.367 31.56 121.847 30.36 124.487 28.52C124.527 28.52 124.567 28.48 124.607 28.48C124.767 28.48 124.847 28.6 124.847 28.72C124.847 28.8 124.807 28.88 124.727 28.92C122.007 30.8 118.447 32.04 116.927 32.04ZM119.647 24.96C125.207 19.6 131.767 12.76 131.767 12C131.767 11.96 131.767 11.92 131.647 11.92C130.567 11.92 123.967 19.32 119.647 24.96ZM112.087 31.48C112.487 31.48 114.127 30.12 116.367 28.04H116.087C114.567 28.04 111.967 30.16 111.967 31.36C111.967 31.48 112.047 31.48 112.087 31.48ZM125.066 32.12C123.906 32.12 123.186 31.68 123.186 30.88C123.186 29.56 125.186 27.56 126.506 27.56C126.946 27.56 127.226 27.8 127.226 28.2C127.226 28.72 126.306 29.32 125.586 29.32C125.146 29.32 124.826 29.28 124.586 29.16C124.066 29.72 123.666 30.36 123.666 30.88C123.666 31.4 124.146 31.64 125.066 31.64C126.226 31.64 129.986 30.56 132.746 28.56C132.786 28.52 132.826 28.52 132.866 28.52C132.986 28.52 133.106 28.6 133.106 28.72C133.106 28.8 133.066 28.88 132.986 28.92C130.186 31 126.306 32.12 125.066 32.12ZM125.586 28.88C126.026 28.88 126.786 28.44 126.786 28.2C126.786 28.08 126.706 28.04 126.506 28.04C126.026 28.04 125.466 28.36 124.946 28.8C125.106 28.84 125.306 28.88 125.586 28.88ZM123.509 42.16C123.229 42.16 123.189 42 123.269 41.76L123.309 41.72C123.349 41.64 123.389 41.56 123.429 41.48C127.269 35.44 132.109 29.16 137.149 23.24C133.709 23.4 130.389 23.68 127.429 24.08H127.389C127.269 24.08 127.149 23.96 127.149 23.84C127.149 23.72 127.229 23.64 127.349 23.6C130.469 23.2 133.949 22.92 137.549 22.8C139.789 20.16 142.069 17.6 144.309 15.16C144.349 15.12 144.429 15.08 144.469 15.08C144.629 15.08 144.709 15.2 144.709 15.32C144.709 15.36 144.709 15.44 144.669 15.48C142.509 17.8 140.349 20.24 138.189 22.76C141.509 22.64 144.909 22.64 148.229 22.76C148.349 22.76 148.429 22.88 148.429 23C148.429 23.12 148.349 23.2 148.189 23.2C144.789 23.08 141.229 23.08 137.749 23.24C132.789 29.04 127.949 35.28 124.149 41.24C124.229 41.28 124.229 41.4 124.149 41.52C123.949 41.84 123.709 42.16 123.509 42.16ZM129.486 42.16C129.206 42.16 129.166 42 129.246 41.76L129.286 41.72C129.326 41.64 129.366 41.56 129.406 41.48C133.246 35.44 138.086 29.16 143.126 23.24C139.686 23.4 136.366 23.68 133.406 24.08H133.366C133.246 24.08 133.126 23.96 133.126 23.84C133.126 23.72 133.206 23.64 133.326 23.6C136.446 23.2 139.926 22.92 143.526 22.8C145.766 20.16 148.046 17.6 150.286 15.16C150.326 15.12 150.406 15.08 150.446 15.08C150.606 15.08 150.686 15.2 150.686 15.32C150.686 15.36 150.686 15.44 150.646 15.48C148.486 17.8 146.326 20.24 144.166 22.76C147.486 22.64 150.886 22.64 154.206 22.76C154.326 22.76 154.406 22.88 154.406 23C154.406 23.12 154.326 23.2 154.166 23.2C150.766 23.08 147.206 23.08 143.726 23.24C138.766 29.04 133.926 35.28 130.126 41.24C130.206 41.28 130.206 41.4 130.126 41.52C129.926 41.84 129.686 42.16 129.486 42.16ZM145.222 32.12C144.062 32.12 143.342 31.68 143.342 30.88C143.342 29.56 145.342 27.56 146.662 27.56C147.102 27.56 147.382 27.8 147.382 28.2C147.382 28.72 146.462 29.32 145.742 29.32C145.302 29.32 144.982 29.28 144.742 29.16C144.222 29.72 143.822 30.36 143.822 30.88C143.822 31.4 144.302 31.64 145.222 31.64C146.382 31.64 150.142 30.56 152.902 28.56C152.942 28.52 152.982 28.52 153.022 28.52C153.142 28.52 153.262 28.6 153.262 28.72C153.262 28.8 153.222 28.88 153.142 28.92C150.342 31 146.462 32.12 145.222 32.12ZM145.742 28.88C146.182 28.88 146.942 28.44 146.942 28.2C146.942 28.08 146.862 28.04 146.662 28.04C146.182 28.04 145.622 28.36 145.102 28.8C145.262 28.84 145.462 28.88 145.742 28.88Z" fill="black"/>
    <defs>
        <clipPath id="clip0_15_38">
            <rect width="39.5655" height="32.2225" fill="white" transform="translate(0 7.59204)"/>
        </clipPath>
    </defs>
</svg>
