<svg width="74" height="56" viewBox="0 0 74 56" fill="none" xmlns="http://www.w3.org/2000/svg">
<mask id="mask0_231_39" style="mask-type:luminance" maskUnits="userSpaceOnUse" x="0" y="0" width="74" height="56">
<path d="M0 0H73.4594V55.0945H0V0Z" fill="white"/>
</mask>
<g mask="url(#mask0_231_39)">
<path fill-rule="evenodd" clip-rule="evenodd" d="M0 0H73.4594V55.0945H0V0Z" fill="#F7FCFF"/>
<path fill-rule="evenodd" clip-rule="evenodd" d="M0 33.6689V38.2602H73.4594V33.6689H0Z" fill="#B03737"/>
<path fill-rule="evenodd" clip-rule="evenodd" d="M0 42.086V46.6772H73.4594V42.086H0Z" fill="#B03737"/>
<path fill-rule="evenodd" clip-rule="evenodd" d="M0 16.8343V21.4255H73.4594V16.8343H0Z" fill="#B03737"/>
<path fill-rule="evenodd" clip-rule="evenodd" d="M0 50.5033V55.0945H73.4594V50.5033H0Z" fill="#B03737"/>
<path fill-rule="evenodd" clip-rule="evenodd" d="M0 25.2516V29.8429H73.4594V25.2516H0Z" fill="#B03737"/>
<path fill-rule="evenodd" clip-rule="evenodd" d="M0 0V4.59121H73.4594V0H0Z" fill="#B03737"/>
<path fill-rule="evenodd" clip-rule="evenodd" d="M0 8.41742V13.0086H73.4594V8.41742H0Z" fill="#B03737"/>
<path d="M0 0H45.9121V29.8429H0V0Z" fill="#3774B0"/>
<path fill-rule="evenodd" clip-rule="evenodd" d="M3.95297 6.74614L2.28663 7.91433L2.8492 5.8354L1.36919 4.51793H3.30228L3.95063 2.82132L4.71086 4.51793H6.35878L5.06397 5.8354L5.56524 7.91433L3.95297 6.74614ZM13.1354 6.74614L11.4691 7.91433L12.0316 5.8354L10.5516 4.51793H12.4847L13.133 2.82132L13.8933 4.51793H15.5412L14.2464 5.8354L14.7477 7.91433L13.1354 6.74614ZM20.6515 7.91433L22.3178 6.74614L23.9301 7.91433L23.4287 5.8354L24.7237 4.51793H23.0757L22.3155 2.82132L21.6671 4.51793H19.734L21.214 5.8354L20.6515 7.91433ZM31.5003 6.74614L29.8339 7.91433L30.3966 5.8354L28.9164 4.51793H30.8495L31.498 2.82132L32.2581 4.51793H33.9061L32.6111 5.8354L33.1125 7.91433L31.5003 6.74614ZM2.28663 17.0967L3.95297 15.9286L5.56524 17.0967L5.06397 15.0178L6.35878 13.7004H4.71086L3.95063 12.0037L3.30228 13.7004H1.36919L2.8492 15.0178L2.28663 17.0967ZM13.1354 15.9286L11.4691 17.0967L12.0316 15.0178L10.5516 13.7004H12.4847L13.133 12.0037L13.8933 13.7004H15.5412L14.2464 15.0178L14.7477 17.0967L13.1354 15.9286ZM20.6515 17.0967L22.3178 15.9286L23.9301 17.0967L23.4287 15.0178L24.7237 13.7004H23.0757L22.3155 12.0037L21.6671 13.7004H19.734L21.214 15.0178L20.6515 17.0967ZM31.5003 15.9286L29.8339 17.0967L30.3966 15.0178L28.9164 13.7004H30.8495L31.498 12.0037L32.2581 13.7004H33.9061L32.6111 15.0178L33.1125 17.0967L31.5003 15.9286ZM2.28663 26.2792L3.95297 25.111L5.56524 26.2792L5.06397 24.2003L6.35878 22.8828H4.71086L3.95063 21.1862L3.30228 22.8828H1.36919L2.8492 24.2003L2.28663 26.2792ZM13.1354 25.111L11.4691 26.2792L12.0316 24.2003L10.5516 22.8828H12.4847L13.133 21.1862L13.8933 22.8828H15.5412L14.2464 24.2003L14.7477 26.2792L13.1354 25.111ZM20.6515 26.2792L22.3178 25.111L23.9301 26.2792L23.4287 24.2003L24.7237 22.8828H23.0757L22.3155 21.1862L21.6671 22.8828H19.734L21.214 24.2003L20.6515 26.2792ZM31.5003 25.111L29.8339 26.2792L30.3966 24.2003L28.9164 22.8828H30.8495L31.498 21.1862L32.2581 22.8828H33.9061L32.6111 24.2003L33.1125 26.2792L31.5003 25.111ZM39.0163 7.91433L40.6827 6.74614L42.2949 7.91433L41.7936 5.8354L43.0885 4.51793H41.4405L40.6804 2.82132L40.0319 4.51793H38.0988L39.579 5.8354L39.0163 7.91433ZM40.6827 15.9286L39.0163 17.0967L39.579 15.0178L38.0988 13.7004H40.0319L40.6804 12.0037L41.4405 13.7004H43.0885L41.7936 15.0178L42.2949 17.0967L40.6827 15.9286ZM39.0163 26.2792L40.6827 25.111L42.2949 26.2792L41.7936 24.2003L43.0885 22.8828H41.4405L40.6804 21.1862L40.0319 22.8828H38.0988L39.579 24.2003L39.0163 26.2792ZM8.54418 11.3373L6.87784 12.5055L7.4404 10.4266L5.96041 9.10914H7.89349L8.54184 7.41253L9.30207 9.10914H10.95L9.65518 10.4266L10.1565 12.5055L8.54418 11.3373ZM16.0603 12.5055L17.7266 11.3373L19.3389 12.5055L18.8376 10.4266L20.1324 9.10914H18.4845L17.7243 7.41253L17.0759 9.10914H15.1428L16.6228 10.4266L16.0603 12.5055ZM26.9091 11.3373L25.2427 12.5055L25.8054 10.4266L24.3252 9.10914H26.2583L26.9068 7.41253L27.6669 9.10914H29.3149L28.0199 10.4266L28.5213 12.5055L26.9091 11.3373ZM6.87784 21.688L8.54418 20.5198L10.1565 21.688L9.65518 19.609L10.95 18.2916H9.30207L8.54184 16.5949L7.89349 18.2916H5.96041L7.4404 19.609L6.87784 21.688ZM17.7266 20.5198L16.0603 21.688L16.6228 19.609L15.1428 18.2916H17.0759L17.7243 16.5949L18.4845 18.2916H20.1324L18.8376 19.609L19.3389 21.688L17.7266 20.5198ZM25.2427 21.688L26.9091 20.5198L28.5213 21.688L28.0199 19.609L29.3149 18.2916H27.6669L26.9068 16.5949L26.2583 18.2916H24.3252L25.8054 19.609L25.2427 21.688ZM36.0915 11.3373L34.4251 12.5055L34.9878 10.4266L33.5076 9.10914H35.4407L36.0892 7.41253L36.8493 9.10914H38.4973L37.2024 10.4266L37.7037 12.5055L36.0915 11.3373ZM34.4251 21.688L36.0915 20.5198L37.7037 21.688L37.2024 19.609L38.4973 18.2916H36.8493L36.0892 16.5949L35.4407 18.2916H33.5076L34.9878 19.609L34.4251 21.688Z" fill="#F7FCFF"/>
</g>
</svg>
